  0
SECTION
  2
HEADER
  9
$ACADVER
  1
AC1015
  9
$ACADMAINTVER
 70
     6
  9
$DWGCODEPAGE
  3
ANSI_1252
  9
$INSBASE
 10
0.0
 20
0.0
 30
0.0
  9
$EXTMIN
 10
0.0
 20
0.0
 30
0.0
  9
$EXTMAX
 10
18.0
 20
11.0
 30
0.0
  9
$LIMMIN
 10
0.0
 20
0.0
  9
$LIMMAX
 10
18.0
 20
11.0
  9
$ORTHOMODE
 70
     0
  9
$REGENMODE
 70
     1
  9
$FILLMODE
 70
     1
  9
$QTEXTMODE
 70
     0
  9
$MIRRTEXT
 70
     1
  9
$LTSCALE
 40
1.0
  9
$ATTMODE
 70
     1
  9
$TEXTSIZE
 40
0.1377952756
  9
$TRACEWID
 40
0.05
  9
$TEXTSTYLE
  7
Standard
  9
$CLAYER
  8
0
  9
$CELTYPE
  6
ByLayer
  9
$CECOLOR
 62
   256
  9
$CELTSCALE
 40
1.0
  9
$DISPSILH
 70
     0
  9
$DIMSCALE
 40
1.0
  9
$DIMASZ
 40
0.14
  9
$DIMEXO
 40
0.0393700787
  9
$DIMDLI
 40
0.38
  9
$DIMRND
 40
0.0
  9
$DIMDLE
 40
0.0
  9
$DIMEXE
 40
0.0393700787
  9
$DIMTP
 40
0.0
  9
$DIMTM
 40
0.0
  9
$DIMTXT
 40
0.1377952756
  9
$DIMCEN
 40
0.09
  9
$DIMTSZ
 40
0.0
  9
$DIMTOL
 70
     0
  9
$DIMLIM
 70
     0
  9
$DIMTIH
 70
     1
  9
$DIMTOH
 70
     1
  9
$DIMSE1
 70
     0
  9
$DIMSE2
 70
     0
  9
$DIMTAD
 70
     1
  9
$DIMZIN
 70
     1
  9
$DIMBLK
  1

  9
$DIMASO
 70
     1
  9
$DIMSHO
 70
     1
  9
$DIMPOST
  1

  9
$DIMAPOST
  1

  9
$DIMALT
 70
     0
  9
$DIMALTD
 70
     2
  9
$DIMALTF
 40
25.4
  9
$DIMLFAC
 40
1.0
  9
$DIMTOFL
 70
     0
  9
$DIMTVP
 40
0.0
  9
$DIMTIX
 70
     0
  9
$DIMSOXD
 70
     0
  9
$DIMSAH
 70
     0
  9
$DIMBLK1
  1

  9
$DIMBLK2
  1

  9
$DIMSTYLE
  2
Standard
  9
$DIMCLRD
 70
     0
  9
$DIMCLRE
 70
     0
  9
$DIMCLRT
 70
     0
  9
$DIMTFAC
 40
1.0
  9
$DIMGAP
 40
0.06
  9
$DIMJUST
 70
     0
  9
$DIMSD1
 70
     0
  9
$DIMSD2
 70
     0
  9
$DIMTOLJ
 70
     1
  9
$DIMTZIN
 70
     1
  9
$DIMALTZ
 70
     0
  9
$DIMALTTZ
 70
     0
  9
$DIMUPT
 70
     0
  9
$DIMDEC
 70
     2
  9
$DIMTDEC
 70
     2
  9
$DIMALTU
 70
     2
  9
$DIMALTTD
 70
     2
  9
$DIMTXSTY
  7
Standard
  9
$DIMAUNIT
 70
     0
  9
$DIMADEC
 70
     2
  9
$DIMALTRND
 40
0.0
  9
$DIMAZIN
 70
     0
  9
$DIMDSEP
 70
    46
  9
$DIMATFIT
 70
     3
  9
$DIMFRAC
 70
     0
  9
$DIMLDRBLK
  1

  9
$DIMLUNIT
 70
     2
  9
$DIMLWD
 70
    -2
  9
$DIMLWE
 70
    -2
  9
$DIMTMOVE
 70
     0
  9
$LUNITS
 70
     2
  9
$LUPREC
 70
     2
  9
$SKETCHINC
 40
0.1
  9
$FILLETRAD
 40
0.0
  9
$AUNITS
 70
     0
  9
$AUPREC
 70
     2
  9
$MENU
  1
.
  9
$ELEVATION
 40
0.0
  9
$PELEVATION
 40
0.0
  9
$THICKNESS
 40
0.0
  9
$LIMCHECK
 70
     0
  9
$CHAMFERA
 40
0.0
  9
$CHAMFERB
 40
0.0
  9
$CHAMFERC
 40
0.0
  9
$CHAMFERD
 40
0.0
  9
$SKPOLY
 70
     0
  9
$TDCREATE
 40
2460799.832506725
  9
$TDUCREATE
 40
2460800.124173391
  9
$TDUPDATE
 40
2460799.832507095
  9
$TDUUPDATE
 40
2460800.124173762
  9
$TDINDWG
 40
0.0000000116
  9
$TDUSRTIMER
 40
0.0000000116
  9
$USRTIMER
 70
     1
  9
$ANGBASE
 50
0.0
  9
$ANGDIR
 70
     0
  9
$PDMODE
 70
     0
  9
$PDSIZE
 40
-1.0
  9
$PLINEWID
 40
0.0
  9
$SPLFRAME
 70
     0
  9
$SPLINETYPE
 70
     6
  9
$SPLINESEGS
 70
     8
  9
$HANDSEED
  5
CF
  9
$SURFTAB1
 70
     6
  9
$SURFTAB2
 70
     6
  9
$SURFTYPE
 70
     6
  9
$SURFU
 70
     6
  9
$SURFV
 70
     6
  9
$UCSBASE
  2

  9
$UCSNAME
  2

  9
$UCSORG
 10
0.0
 20
0.0
 30
0.0
  9
$UCSXDIR
 10
1.0
 20
0.0
 30
0.0
  9
$UCSYDIR
 10
0.0
 20
1.0
 30
0.0
  9
$UCSORTHOREF
  2

  9
$UCSORTHOVIEW
 70
     0
  9
$UCSORGTOP
 10
0.0
 20
0.0
 30
0.0
  9
$UCSORGBOTTOM
 10
0.0
 20
0.0
 30
0.0
  9
$UCSORGLEFT
 10
0.0
 20
0.0
 30
0.0
  9
$UCSORGRIGHT
 10
0.0
 20
0.0
 30
0.0
  9
$UCSORGFRONT
 10
0.0
 20
0.0
 30
0.0
  9
$UCSORGBACK
 10
0.0
 20
0.0
 30
0.0
  9
$PUCSBASE
  2

  9
$PUCSNAME
  2

  9
$PUCSORG
 10
0.0
 20
0.0
 30
0.0
  9
$PUCSXDIR
 10
1.0
 20
0.0
 30
0.0
  9
$PUCSYDIR
 10
0.0
 20
1.0
 30
0.0
  9
$PUCSORTHOREF
  2

  9
$PUCSORTHOVIEW
 70
     0
  9
$PUCSORGTOP
 10
0.0
 20
0.0
 30
0.0
  9
$PUCSORGBOTTOM
 10
0.0
 20
0.0
 30
0.0
  9
$PUCSORGLEFT
 10
0.0
 20
0.0
 30
0.0
  9
$PUCSORGRIGHT
 10
0.0
 20
0.0
 30
0.0
  9
$PUCSORGFRONT
 10
0.0
 20
0.0
 30
0.0
  9
$PUCSORGBACK
 10
0.0
 20
0.0
 30
0.0
  9
$USERI1
 70
     0
  9
$USERI2
 70
     0
  9
$USERI3
 70
     0
  9
$USERI4
 70
     0
  9
$USERI5
 70
     0
  9
$USERR1
 40
0.0
  9
$USERR2
 40
0.0
  9
$USERR3
 40
0.0
  9
$USERR4
 40
0.0
  9
$USERR5
 40
0.0
  9
$WORLDVIEW
 70
     1
  9
$SHADEDGE
 70
     3
  9
$SHADEDIF
 70
    70
  9
$TILEMODE
 70
     1
  9
$MAXACTVP
 70
    64
  9
$PINSBASE
 10
0.0
 20
0.0
 30
0.0
  9
$PLIMCHECK
 70
     0
  9
$PEXTMIN
 10
1.0000000000E+20
 20
1.0000000000E+20
 30
1.0000000000E+20
  9
$PEXTMAX
 10
-1.0000000000E+20
 20
-1.0000000000E+20
 30
-1.0000000000E+20
  9
$PLIMMIN
 10
0.0
 20
0.0
  9
$PLIMMAX
 10
12.0
 20
9.0
  9
$UNITMODE
 70
     0
  9
$VISRETAIN
 70
     1
  9
$PLINEGEN
 70
     0
  9
$PSLTSCALE
 70
     1
  9
$TREEDEPTH
 70
  3020
  9
$CMLSTYLE
  2
Standard
  9
$CMLJUST
 70
     0
  9
$CMLSCALE
 40
1.0
  9
$PROXYGRAPHICS
 70
     1
  9
$MEASUREMENT
 70
     0
  9
$CELWEIGHT
370
    -1
  9
$ENDCAPS
280
     0
  9
$JOINSTYLE
280
     0
  9
$LWDISPLAY
290
     1
  9
$INSUNITS
 70
     1
  9
$HYPERLINKBASE
  1

  9
$STYLESHEET
  1

  9
$XEDIT
290
     1
  9
$CEPSNTYPE
380
     0
  9
$PSTYLEMODE
290
     1
  9
$FINGERPRINTGUID
  2
{ae256734-c944-4e11-8d22-ef635daf3e24}
  9
$VERSIONGUID
  2
{FAEB1C32-E019-11D5-929B-00C0DF256EC4}
  9
$EXTNAMES
290
     1
  9
$PSVPSCALE
 40
0.0
  9
$OLESTARTUP
290
     0
  0
ENDSEC
  0
SECTION
  2
CLASSES
  0
CLASS
  1
ACDBDICTIONARYWDFLT
  2
AcDbDictionaryWithDefault
  3
ObjectDBX Classes
 90
        0
280
     0
281
     0
  0
CLASS
  1
VISUALSTYLE
  2
AcDbVisualStyle
  3
ObjectDBX Classes
 90
     4095
280
     0
281
     0
  0
CLASS
  1
MATERIAL
  2
AcDbMaterial
  3
ObjectDBX Classes
 90
     1153
280
     0
281
     0
  0
CLASS
  1
SCALE
  2
AcDbScale
  3
ObjectDBX Classes
 90
     1153
280
     0
281
     0
  0
CLASS
  1
TABLESTYLE
  2
AcDbTableStyle
  3
ObjectDBX Classes
 90
     4095
280
     0
281
     0
  0
CLASS
  1
MLEADERSTYLE
  2
AcDbMLeaderStyle
  3
ACDB_MLEADERSTYLE_CLASS
 90
     4095
280
     0
281
     0
  0
CLASS
  1
SUN
  2
AcDbSun
  3
SCENEOE
 90
     1153
280
     0
281
     0
  0
CLASS
  1
ACDBPLACEHOLDER
  2
AcDbPlaceHolder
  3
ObjectDBX Classes
 90
        0
280
     0
281
     0
  0
CLASS
  1
LAYOUT
  2
AcDbLayout
  3
ObjectDBX Classes
 90
        0
280
     0
281
     0
  0
ENDSEC
  0
SECTION
  2
TABLES
  0
TABLE
  2
VPORT
  5
8
330
0
100
AcDbSymbolTable
 70
     1
  0
VPORT
  5
29
330
8
100
AcDbSymbolTableRecord
100
AcDbViewportTableRecord
  2
*Active
 70
     0
 10
0.0
 20
0.0
 11
1.0
 21
1.0
 12
9.0
 22
5.5
 13
0.0
 23
0.0
 14
0.5
 24
0.5
 15
0.5
 25
0.5
 16
0.0
 26
0.0
 36
1.0
 17
0.0
 27
0.0
 37
0.0
 40
11.0
 41
1.6363636364
 42
50.0
 43
0.0
 44
0.0
 50
0.0
 51
0.0
 71
     0
 72
  2000
 73
     1
 74
     3
 75
     0
 76
     0
 77
     0
 78
     0
281
     0
 65
     1
110
0.0
120
0.0
130
0.0
111
1.0
121
0.0
131
0.0
112
0.0
122
1.0
132
0.0
 79
     0
146
0.0
  0
ENDTAB
  0
TABLE
  2
LTYPE
  5
5
330
0
100
AcDbSymbolTable
 70
     6
  0
LTYPE
  5
14
330
5
100
AcDbSymbolTableRecord
100
AcDbLinetypeTableRecord
  2
ByBlock
 70
     0
  3

 72
    65
 73
     0
 40
0.0
  0
LTYPE
  5
15
330
5
100
AcDbSymbolTableRecord
100
AcDbLinetypeTableRecord
  2
ByLayer
 70
     0
  3

 72
    65
 73
     0
 40
0.0
  0
LTYPE
  5
16
330
5
100
AcDbSymbolTableRecord
100
AcDbLinetypeTableRecord
  2
Continuous
 70
     0
  3
Solid line
 72
    65
 73
     0
 40
0.0
  0
LTYPE
  5
5E
330
5
100
AcDbSymbolTableRecord
100
AcDbLinetypeTableRecord
  2
HIDDEN
 70
     0
  3
Hidden __ __ __ __ __ __ __ __ __ __ __ __ __ __
 72
    65
 73
     2
 40
0.075
 49
0.05
 74
     0
 49
-0.025
 74
     0
  0
LTYPE
  5
5F
330
5
100
AcDbSymbolTableRecord
100
AcDbLinetypeTableRecord
  2
PHANTOM
 70
     0
  3
Phantom ______  __  __  ______  __  __  ______
 72
    65
 73
     6
 40
0.5
 49
0.25
 74
     0
 49
-0.05
 74
     0
 49
0.05
 74
     0
 49
-0.05
 74
     0
 49
0.05
 74
     0
 49
-0.05
 74
     0
  0
LTYPE
  5
60
330
5
100
AcDbSymbolTableRecord
100
AcDbLinetypeTableRecord
  2
CENTER
 70
     0
  3
Center ____ _ ____ _ ____ _ ____ _ ____ _ ____
 72
    65
 73
     4
 40
0.4
 49
0.25
 74
     0
 49
-0.05
 74
     0
 49
0.05
 74
     0
 49
-0.05
 74
     0
  0
LTYPE
  5
61
330
5
100
AcDbSymbolTableRecord
100
AcDbLinetypeTableRecord
  2
CENTERX2
 70
     0
  3
Center (2x) ________  __  ________  __  _____
 72
    65
 73
     4
 40
0.8
 49
0.5
 74
     0
 49
-0.1
 74
     0
 49
0.1
 74
     0
 49
-0.1
 74
     0
  0
LTYPE
  5
62
330
5
100
AcDbSymbolTableRecord
100
AcDbLinetypeTableRecord
  2
DOT2
 70
     0
  3
Dot (.5x) ........................................
 72
    65
 73
     2
 40
0.025
 49
0.0
 74
     0
 49
-0.025
 74
     0
  0
ENDTAB
  0
TABLE
  2
LAYER
  5
2
330
0
100
AcDbSymbolTable
 70
     1
  0
LAYER
  5
10
330
2
100
AcDbSymbolTableRecord
100
AcDbLayerTableRecord
  2
0
 70
     0
 62
     7
  6
Continuous
370
    -3
390
F
  0
ENDTAB
  0
TABLE
  2
STYLE
  5
3
330
0
100
AcDbSymbolTable
 70
     2
  0
STYLE
  5
11
330
3
100
AcDbSymbolTableRecord
100
AcDbTextStyleTableRecord
  2
Standard
 70
     0
 40
0.0
 41
1.0
 50
0.0
 71
     0
 42
0.1377952756
  3
txt
  4

  0
STYLE
  5
CB
330
3
100
AcDbSymbolTableRecord
100
AcDbTextStyleTableRecord
  2
SLDTEXTSTYLE0
 70
     0
 40
0.0
 41
0.7
 50
0.0
 71
     0
 42
0.1377952756
  3
TXT
  4

  0
ENDTAB
  0
TABLE
  2
VIEW
  5
6
330
0
100
AcDbSymbolTable
 70
     0
  0
ENDTAB
  0
TABLE
  2
UCS
  5
7
330
0
100
AcDbSymbolTable
 70
     0
  0
ENDTAB
  0
TABLE
  2
APPID
  5
9
330
0
100
AcDbSymbolTable
 70
     1
  0
APPID
  5
12
330
9
100
AcDbSymbolTableRecord
100
AcDbRegAppTableRecord
  2
ACAD
 70
     0
  0
ENDTAB
  0
TABLE
  2
DIMSTYLE
  5
A
330
0
100
AcDbSymbolTable
 70
     1
100
AcDbDimStyleTable
  0
DIMSTYLE
105
27
330
A
100
AcDbSymbolTableRecord
100
AcDbDimStyleTableRecord
  2
Standard
 70
     0
178
     0
340
11
  0
ENDTAB
  0
TABLE
  2
BLOCK_RECORD
  5
1
330
0
100
AcDbSymbolTable
 70
     1
  0
BLOCK_RECORD
  5
1F
330
1
100
AcDbSymbolTableRecord
100
AcDbBlockTableRecord
  2
*Model_Space
340
22
  0
BLOCK_RECORD
  5
1B
330
1
100
AcDbSymbolTableRecord
100
AcDbBlockTableRecord
  2
*Paper_Space
340
1E
  0
BLOCK_RECORD
  5
23
330
1
100
AcDbSymbolTableRecord
100
AcDbBlockTableRecord
  2
*Paper_Space0
340
26
  0
ENDTAB
  0
ENDSEC
  0
SECTION
  2
BLOCKS
  0
BLOCK
  5
20
330
1F
100
AcDbEntity
  8
0
100
AcDbBlockBegin
  2
*Model_Space
 70
     0
 10
0.0
 20
0.0
 30
0.0
  3
*Model_Space
  1

  0
ENDBLK
  5
21
330
1F
100
AcDbEntity
  8
0
100
AcDbBlockEnd
  0
BLOCK
  5
1C
330
1B
100
AcDbEntity
 67
     1
  8
0
100
AcDbBlockBegin
  2
*Paper_Space
 70
     0
 10
0.0
 20
0.0
 30
0.0
  3
*Paper_Space
  1

  0
ENDBLK
  5
1D
330
1B
100
AcDbEntity
 67
     1
  8
0
100
AcDbBlockEnd
  0
BLOCK
  5
24
330
23
100
AcDbEntity
  8
0
100
AcDbBlockBegin
  2
*Paper_Space0
 70
     0
 10
0.0
 20
0.0
 30
0.0
  3
*Paper_Space0
  1

  0
ENDBLK
  5
25
330
23
100
AcDbEntity
  8
0
100
AcDbBlockEnd
  0
ENDSEC
  0
SECTION
  2
ENTITIES
  0
CIRCLE
  5
63
330
1F
100
AcDbEntity
  8
0
  6
Continuous
 62
     7
370
    25
100
AcDbCircle
 10
7.6729474557
 20
2.9963396214
 30
0.0
 40
0.0590551181102397
  0
CIRCLE
  5
64
330
1F
100
AcDbEntity
  8
0
  6
Continuous
 62
     7
370
    25
100
AcDbCircle
 10
4.826610947
 20
6.1468284851
 30
0.0
 40
0.0565944881889751
  0
CIRCLE
  5
65
330
1F
100
AcDbEntity
  8
0
  6
Continuous
 62
     7
370
    25
100
AcDbCircle
 10
5.4565322068
 20
6.1468284851
 30
0.0
 40
0.0565944881889768
  0
CIRCLE
  5
66
330
1F
100
AcDbEntity
  8
0
  6
Continuous
 62
     7
370
    25
100
AcDbCircle
 10
6.0864534667
 20
6.1468284851
 30
0.0
 40
0.0565944881889777
  0
CIRCLE
  5
67
330
1F
100
AcDbEntity
  8
0
  6
Continuous
 62
     7
370
    25
100
AcDbCircle
 10
13.2066896871
 20
4.6468284851
 30
0.0
 40
0.0565944881889759
  0
CIRCLE
  5
68
330
1F
100
AcDbEntity
  8
0
  6
Continuous
 62
     7
370
    25
100
AcDbCircle
 10
6.7066896871
 20
4.6468284853
 30
0.0
 40
0.0565944881889759
  0
CIRCLE
  5
69
330
1F
100
AcDbEntity
  8
0
  6
Continuous
 62
     7
370
    25
100
AcDbCircle
 10
5.2016788671
 20
2.3257773351
 30
0.0
 40
0.2299999999999995
  0
CIRCLE
  5
6A
330
1F
100
AcDbEntity
  8
0
  6
Continuous
 62
     7
370
    25
100
AcDbCircle
 10
10.4531126957
 20
4.3485726803
 30
0.0
 40
0.059055118110237
  0
CIRCLE
  5
6B
330
1F
100
AcDbEntity
  8
0
  6
Continuous
 62
     7
370
    25
100
AcDbCircle
 10
10.7674472044
 20
4.0338082597
 30
0.0
 40
0.0590551181102352
  0
CIRCLE
  5
6C
330
1F
100
AcDbEntity
  8
0
  6
Continuous
 62
     7
370
    25
100
AcDbCircle
 10
11.082211625
 20
4.3481427685
 30
0.0
 40
0.0590551181102388
  0
CIRCLE
  5
6D
330
1F
100
AcDbEntity
  8
0
  6
Continuous
 62
     7
370
    25
100
AcDbCircle
 10
7.3586129469
 20
3.311104042
 30
0.0
 40
0.0590551181102361
  0
CIRCLE
  5
6E
330
1F
100
AcDbEntity
  8
0
  6
Continuous
 62
     7
370
    25
100
AcDbCircle
 10
7.0438485263
 20
2.9967695332
 30
0.0
 40
0.059055118110237
  0
CIRCLE
  5
6F
330
1F
100
AcDbEntity
  8
0
  6
Continuous
 62
     7
370
    25
100
AcDbCircle
 10
7.3581830351
 20
2.6820051126
 30
0.0
 40
0.0590551181102388
  0
CIRCLE
  5
70
330
1F
100
AcDbEntity
  8
0
  6
Continuous
 62
     7
370
    25
100
AcDbCircle
 10
10.7678771163
 20
4.6629071891
 30
0.0
 40
0.059055118110237
  0
CIRCLE
  5
71
330
1F
100
AcDbEntity
  8
0
  6
Continuous
 62
     7
370
    25
100
AcDbCircle
 10
10.5143747265
 20
6.1468284851
 30
0.0
 40
0.0565944881889777
  0
CIRCLE
  5
72
330
1F
100
AcDbEntity
  8
0
  6
Continuous
 62
     7
370
    25
100
AcDbCircle
 10
11.1442959863
 20
6.1468284851
 30
0.0
 40
0.0565944881889759
  0
CIRCLE
  5
73
330
1F
100
AcDbEntity
  8
0
  6
Continuous
 62
     7
370
    25
100
AcDbCircle
 10
11.7742172462
 20
6.1468284851
 30
0.0
 40
0.0565944881889759
  0
CIRCLE
  5
74
330
1F
100
AcDbEntity
  8
0
  6
Continuous
 62
     7
370
    25
100
AcDbCircle
 10
4.1966896871
 20
6.1468284851
 30
0.0
 40
0.0565944881889751
  0
CIRCLE
  5
75
330
1F
100
AcDbEntity
  8
0
  6
Continuous
 62
     7
370
    25
100
AcDbCircle
 10
9.8844534667
 20
6.1468284851
 30
0.0
 40
0.0565944881889777
  0
CIRCLE
  5
76
330
1F
100
AcDbEntity
  8
0
  6
Continuous
 62
     7
370
    25
100
AcDbCircle
 10
10.7676643471
 20
4.3483599951
 30
0.0
 40
0.1875
  0
CIRCLE
  5
77
330
1F
100
AcDbEntity
  8
0
  6
Continuous
 62
     7
370
    25
100
AcDbCircle
 10
7.3584001771
 20
2.9965568451
 30
0.0
 40
0.1875
  0
CIRCLE
  5
78
330
1F
100
AcDbEntity
  8
0
  6
Continuous
 62
     7
370
    25
100
AcDbCircle
 10
11.7016788671
 20
2.3257773351
 30
0.0
 40
0.2300000000000004
  0
SPLINE
  5
79
330
1F
100
AcDbEntity
  8
0
  6
Continuous
 62
     7
370
    25
100
AcDbSpline
210
0.0
220
0.0
230
1.0
 70
     8
 71
     3
 72
     8
 73
     4
 74
     0
 42
0.00000001
 43
0.00000001
 40
0.0
 40
0.0
 40
0.0
 40
0.0
 40
1.0
 40
1.0
 40
1.0
 40
1.0
 10
2.997286022385999
 20
2.324849831586129
 30
0.0
 10
3.306517809203183
 20
2.310910686621063
 30
0.0
 10
3.493110064166818
 20
2.457495129795548
 30
0.0
 10
3.557062787276908
 20
2.764603161109584
 30
0.0
  0
SPLINE
  5
7A
330
1F
100
AcDbEntity
  8
0
  6
Continuous
 62
     7
370
    25
100
AcDbSpline
210
0.0
220
0.0
230
1.0
 70
     8
 71
     3
 72
     8
 73
     4
 74
     0
 42
0.00000001
 43
0.00000001
 40
0.0
 40
0.0
 40
0.0
 40
0.0
 40
1.0
 40
1.0
 40
1.0
 40
1.0
 10
2.941513290273376
 20
2.254046698725538
 30
0.0
 10
2.981160402052395
 20
2.260635491686946
 30
0.0
 10
2.999751312756602
 20
2.28423653597381
 30
0.0
 10
2.997286022385999
 20
2.324849831586129
 30
0.0
  0
SPLINE
  5
7B
330
1F
100
AcDbEntity
  8
0
  6
Continuous
 62
     7
370
    25
100
AcDbSpline
210
0.0
220
0.0
230
1.0
 70
     8
 71
     3
 72
    15
 73
    11
 74
     0
 42
0.00000001
 43
0.00000001
 40
0.0
 40
0.0
 40
0.0
 40
0.0
 40
0.0951246963669942
 40
0.1803567270573186
 40
0.2933521869510139
 40
0.4114898653533705
 40
0.5215716242236519
 40
0.6293096841411217
 40
0.7535945683239635
 40
1.0
 40
1.0
 40
1.0
 40
1.0
 10
1.626194872378418
 20
2.303280439506088
 30
0.0
 10
1.602909120024222
 20
2.248387358661661
 30
0.0
 10
1.693256413130319
 20
2.187763701858482
 30
0.0
 10
1.810758374977143
 20
2.10723011093618
 30
0.0
 10
1.94023378305468
 20
2.008457500860617
 30
0.0
 10
2.115178324991446
 20
1.955435117778235
 30
0.0
 10
2.281733939129056
 20
2.011029984333217
 30
0.0
 10
2.457819567500409
 20
2.001373130202634
 30
0.0
 10
2.690444314176569
 20
2.07682295814653
 30
0.0
 10
2.877103090297744
 20
2.128445800759663
 30
0.0
 10
2.941513290273376
 20
2.254046698725538
 30
0.0
  0
SPLINE
  5
7C
330
1F
100
AcDbEntity
  8
0
  6
Continuous
 62
     7
370
    25
100
AcDbSpline
210
0.0
220
0.0
230
1.0
 70
     8
 71
     3
 72
     8
 73
     4
 74
     0
 42
0.00000001
 43
0.00000001
 40
0.0
 40
0.0
 40
0.0
 40
0.0
 40
1.0
 40
1.0
 40
1.0
 40
1.0
 10
1.467351539139245
 20
2.294498995170411
 30
0.0
 10
1.517751452190825
 20
2.314847905320852
 30
0.0
 10
1.570699229937218
 20
2.317775053432744
 30
0.0
 10
1.626194872378418
 20
2.303280439506088
 30
0.0
  0
SPLINE
  5
7D
330
1F
100
AcDbEntity
  8
0
  6
Continuous
 62
     7
370
    25
100
AcDbSpline
210
0.0
220
0.0
230
1.0
 70
     8
 71
     3
 72
     8
 73
     4
 74
     0
 42
0.00000001
 43
0.00000001
 40
0.0
 40
0.0
 40
0.0
 40
0.0
 40
1.0
 40
1.0
 40
1.0
 40
1.0
 10
1.312877021451299
 20
2.442278522849061
 30
0.0
 10
1.300369890684065
 20
2.313540275877804
 30
0.0
 10
1.351861396580047
 20
2.264280433318254
 30
0.0
 10
1.467351539139245
 20
2.294498995170411
 30
0.0
  0
SPLINE
  5
7E
330
1F
100
AcDbEntity
  8
0
  6
Continuous
 62
     7
370
    25
100
AcDbSpline
210
0.0
220
0.0
230
1.0
 70
     8
 71
     3
 72
    15
 73
    11
 74
     0
 42
0.00000001
 43
0.00000001
 40
0.0
 40
0.0
 40
0.0
 40
0.0
 40
0.1205609651616784
 40
0.2395944396927976
 40
0.3577769974426885
 40
0.4878626459429553
 40
0.6361566298666976
 40
0.7429747222565061
 40
0.8938449808654935
 40
1.0
 40
1.0
 40
1.0
 40
1.0
 10
0.9488857193544475
 20
3.279856225105038
 30
0.0
 10
0.9493438734113188
 20
3.234771060189373
 30
0.0
 10
0.9120642038123032
 20
3.157139877702046
 30
0.0
 10
0.8343062259840026
 20
3.053209685040087
 30
0.0
 10
0.8249609680384461
 20
2.913546871044343
 30
0.0
 10
0.9005311890603412
 20
2.785677461729029
 30
0.0
 10
1.014502093007675
 20
2.706746081021733
 30
0.0
 10
1.101187924709948
 20
2.58704981156085
 30
0.0
 10
1.226031825975483
 20
2.534550548364022
 30
0.0
 10
1.268562083238762
 20
2.440045918374998
 30
0.0
 10
1.312877021451299
 20
2.44227852284906
 30
0.0
  0
SPLINE
  5
7F
330
1F
100
AcDbEntity
  8
0
  6
Continuous
 62
     7
370
    25
100
AcDbSpline
210
0.0
220
0.0
230
1.0
 70
     8
 71
     3
 72
     8
 73
     4
 74
     0
 42
0.00000001
 43
0.00000001
 40
0.0
 40
0.0
 40
0.0
 40
0.0
 40
1.0
 40
1.0
 40
1.0
 40
1.0
 10
0.7071984483915275
 20
3.63088936733316
 30
0.0
 10
0.7783217232667
 20
3.507418086315453
 30
0.0
 10
0.8588841469210071
 20
3.390407038906079
 30
0.0
 10
0.9488857193544475
 20
3.279856225105038
 30
0.0
  0
SPLINE
  5
80
330
1F
100
AcDbEntity
  8
0
  6
Continuous
 62
     7
370
    25
100
AcDbSpline
210
0.0
220
0.0
230
1.0
 70
     8
 71
     3
 72
    10
 73
     6
 74
     0
 42
0.00000001
 43
0.00000001
 40
0.0
 40
0.0
 40
0.0
 40
0.0
 40
0.5710620615377735
 40
0.7715518213042163
 40
1.0
 40
1.0
 40
1.0
 40
1.0
 10
0.4865812384177081
 20
3.679202699920452
 30
0.0
 10
0.4784926680041506
 20
3.584726478181922
 30
0.0
 10
0.5623915532836886
 20
3.590940584309462
 30
0.0
 10
0.6580474242431649
 20
3.611807666835111
 30
0.0
 10
0.6761065504097814
 20
3.660017729882263
 30
0.0
 10
0.7071984483915275
 20
3.63088936733316
 30
0.0
  0
SPLINE
  5
81
330
1F
100
AcDbEntity
  8
0
  6
Continuous
 62
     7
370
    25
100
AcDbSpline
210
0.0
220
0.0
230
1.0
 70
     8
 71
     3
 72
    16
 73
    12
 74
     0
 42
0.00000001
 43
0.00000001
 40
0.0
 40
0.0
 40
0.0
 40
0.0
 40
0.1657494013108957
 40
0.3449311975057976
 40
0.5013659694474206
 40
0.5847619979245327
 40
0.755009890374037
 40
0.8330560259280013
 40
0.9047592764270799
 40
0.9493813267651467
 40
1.0
 40
1.0
 40
1.0
 40
1.0
 10
0.7843914209371762
 20
7.07574511044858
 30
0.0
 10
0.655890338640384
 20
6.918009911513153
 30
0.0
 10
0.4253733187978937
 20
6.565715548719333
 30
0.0
 10
0.1400973286718129
 20
6.014331043463182
 30
0.0
 10
0.0535970078200728
 20
5.505011448292118
 30
0.0
 10
-0.0043699284204489
 20
5.005599889328162
 30
0.0
 10
0.0771947213117315
 20
4.59755895757514
 30
0.0
 10
0.2133318000144542
 20
4.23241270484585
 30
0.0
 10
0.2781539112543228
 20
4.000432559292925
 30
0.0
 10
0.3968794360024778
 20
3.832083640122482
 30
0.0
 10
0.4361114675149202
 20
3.720776867131968
 30
0.0
 10
0.4865812384177092
 20
3.679202699920452
 30
0.0
  0
SPLINE
  5
82
330
1F
100
AcDbEntity
  8
0
  6
Continuous
 62
     7
370
    25
100
AcDbSpline
210
0.0
220
0.0
230
1.0
 70
     8
 71
     3
 72
    10
 73
     6
 74
     0
 42
0.00000001
 43
0.00000001
 40
0.0
 40
0.0
 40
0.0
 40
0.0
 40
0.3005764592149467
 40
0.4969407287180128
 40
1.0
 40
1.0
 40
1.0
 40
1.0
 10
1.03762095991249
 20
7.294535143352705
 30
0.0
 10
0.8668876159535384
 20
7.126421214383384
 30
0.0
 10
0.828768599442147
 20
7.419671419871342
 30
0.0
 10
0.8330577237645309
 20
8.08330203811535
 30
0.0
 10
0.6881849599374249
 20
7.124054627835833
 30
0.0
 10
0.7843914209371762
 20
7.07574511044858
 30
0.0
  0
SPLINE
  5
83
330
1F
100
AcDbEntity
  8
0
  6
Continuous
 62
     7
370
    25
100
AcDbSpline
210
0.0
220
0.0
230
1.0
 70
     8
 71
     3
 72
     8
 73
     4
 74
     0
 42
0.00000001
 43
0.00000001
 40
0.0
 40
0.0
 40
0.0
 40
0.0
 40
1.0
 40
1.0
 40
1.0
 40
1.0
 10
1.124480085780339
 20
8.039194312076736
 30
0.0
 10
1.058174002236454
 20
7.79674534664212
 30
0.0
 10
1.029220960280504
 20
7.54852562373411
 30
0.0
 10
1.03762095991249
 20
7.294535143352705
 30
0.0
  0
SPLINE
  5
84
330
1F
100
AcDbEntity
  8
0
  6
Continuous
 62
     7
370
    25
100
AcDbSpline
210
0.0
220
0.0
230
1.0
 70
     8
 71
     3
 72
     8
 73
     4
 74
     0
 42
0.00000001
 43
0.00000001
 40
0.0
 40
0.0
 40
0.0
 40
0.0
 40
1.0
 40
1.0
 40
1.0
 40
1.0
 10
1.213485697856481
 20
7.41932965253387
 30
0.0
 10
1.168856373099986
 20
7.623939760388177
 30
0.0
 10
1.139187835741272
 20
7.830561313569132
 30
0.0
 10
1.124480085780339
 20
8.039194312076736
 30
0.0
  0
SPLINE
  5
85
330
1F
100
AcDbEntity
  8
0
  6
Continuous
 62
     7
370
    25
100
AcDbSpline
210
0.0
220
0.0
230
1.0
 70
     8
 71
     3
 72
     8
 73
     4
 74
     0
 42
0.00000001
 43
0.00000001
 40
0.0
 40
0.0
 40
0.0
 40
0.0
 40
1.0
 40
1.0
 40
1.0
 40
1.0
 10
2.139536823207336
 20
7.965090190358199
 30
0.0
 10
1.819471523233722
 20
7.802268328738242
 30
0.0
 10
1.510787814783437
 20
7.620348149463465
 30
0.0
 10
1.213485697856481
 20
7.41932965253387
 30
0.0
  0
SPLINE
  5
86
330
1F
100
AcDbEntity
  8
0
  6
Continuous
 62
     7
370
    25
100
AcDbSpline
210
0.0
220
0.0
230
1.0
 70
     8
 71
     3
 72
    12
 73
     8
 74
     0
 42
0.00000001
 43
0.00000001
 40
0.0
 40
0.0
 40
0.0
 40
0.0
 40
0.2852456200359859
 40
0.4736111433142806
 40
0.5428567745220343
 40
0.6401589946313972
 40
1.0
 40
1.0
 40
1.0
 40
1.0
 10
2.159668735844487
 20
8.22690853372886
 30
0.0
 10
2.093178142620553
 20
8.202546581098721
 30
0.0
 10
2.241167583535482
 20
8.065632689790327
 30
0.0
 10
2.108819804310543
 20
8.127020473026638
 30
0.0
 10
2.054160196695239
 20
8.160484537407426
 30
0.0
 10
2.020699857350627
 20
8.040858331109051
 30
0.0
 10
2.156991642012382
 20
8.043901234994937
 30
0.0
 10
2.139536823207336
 20
7.965090190358198
 30
0.0
  0
SPLINE
  5
87
330
1F
100
AcDbEntity
  8
0
  6
Continuous
 62
     7
370
    25
100
AcDbSpline
210
0.0
220
0.0
230
1.0
 70
     8
 71
     3
 72
     9
 73
     5
 74
     0
 42
0.00000001
 43
0.00000001
 40
0.0
 40
0.0
 40
0.0
 40
0.0
 40
0.3390967512605323
 40
1.0
 40
1.0
 40
1.0
 40
1.0
 10
2.468924539861298
 20
8.064853090575946
 30
0.0
 10
2.431955472028103
 20
8.116515914300605
 30
0.0
 10
2.303003254859081
 20
7.983851627471003
 30
0.0
 10
2.21085970119792
 20
8.219583460055725
 30
0.0
 10
2.159668735844487
 20
8.22690853372886
 30
0.0
  0
LINE
  5
88
330
1F
100
AcDbEntity
  8
0
  6
Continuous
 62
     7
370
    25
100
AcDbLine
 10
2.679596616
 20
8.2485159261
 30
0.0
 11
2.4689245399
 21
8.0648530906
 31
0.0
  0
SPLINE
  5
89
330
1F
100
AcDbEntity
  8
0
  6
Continuous
 62
     7
370
    25
100
AcDbSpline
210
0.0
220
0.0
230
1.0
 70
     8
 71
     3
 72
    12
 73
     8
 74
     0
 42
0.00000001
 43
0.00000001
 40
0.0
 40
0.0
 40
0.0
 40
0.0
 40
0.3558616792111882
 40
0.4815194065810081
 40
0.6322565460638736
 40
0.7557468787661993
 40
1.0
 40
1.0
 40
1.0
 40
1.0
 10
3.836712741412063
 20
8.257549469107113
 30
0.0
 10
3.615723417775447
 20
8.164319696140028
 30
0.0
 10
3.442953751676169
 20
8.373262787753074
 30
0.0
 10
3.127451508881526
 20
8.473760987122052
 30
0.0
 10
2.963304629877622
 20
8.574504851362445
 30
0.0
 10
2.653389491466981
 20
8.675848997344586
 30
0.0
 10
2.641568734029429
 20
8.34340629113966
 30
0.0
 10
2.679596615960087
 20
8.248515926149247
 30
0.0
  0
LINE
  5
8A
330
1F
100
AcDbEntity
  8
0
  6
Continuous
 62
     7
370
    25
100
AcDbLine
 10
3.8661754608
 20
8.322561717
 30
0.0
 11
3.8367127414
 21
8.2575494691
 31
0.0
  0
SPLINE
  5
8B
330
1F
100
AcDbEntity
  8
0
  6
Continuous
 62
     7
370
    25
100
AcDbSpline
210
0.0
220
0.0
230
1.0
 70
     8
 71
     3
 72
    11
 73
     7
 74
     0
 42
0.00000001
 43
0.00000001
 40
0.0
 40
0.0
 40
0.0
 40
0.0
 40
0.2613472449009638
 40
0.3723946684617692
 40
0.4948416790740373
 40
1.0
 40
1.0
 40
1.0
 40
1.0
 10
4.031288026010827
 20
8.593197350147461
 30
0.0
 10
3.996771839465355
 20
8.502832423353823
 30
0.0
 10
3.930840023045367
 20
8.587999409137458
 30
0.0
 10
3.854439113714216
 20
8.538721295464407
 30
0.0
 10
3.706294378631867
 20
8.586126365515124
 30
0.0
 10
3.807333392756477
 20
8.3159300982818
 30
0.0
 10
3.866175460839734
 20
8.322561717009881
 30
0.0
  0
LINE
  5
8C
330
1F
100
AcDbEntity
  8
0
  6
Continuous
 62
     7
370
    25
100
AcDbLine
 10
4.0809459403
 20
8.5931973501
 30
0.0
 11
4.031288026
 21
8.5931973501
 31
0.0
  0
LINE
  5
8D
330
1F
100
AcDbEntity
  8
0
  6
Continuous
 62
     7
370
    25
100
AcDbLine
 10
4.0809459403
 20
8.6316822338
 30
0.0
 11
4.0809459403
 21
8.5931973501
 31
0.0
  0
SPLINE
  5
8E
330
1F
100
AcDbEntity
  8
0
  6
Continuous
 62
     7
370
    25
100
AcDbSpline
210
0.0
220
0.0
230
1.0
 70
     8
 71
     3
 72
     8
 73
     4
 74
     0
 42
0.00000001
 43
0.00000001
 40
0.0
 40
0.0
 40
0.0
 40
0.0
 40
1.0
 40
1.0
 40
1.0
 40
1.0
 10
3.995286038116378
 20
8.759551363176982
 30
0.0
 10
3.98925571468088
 20
8.692941121351888
 30
0.0
 10
4.017809015424753
 20
8.650318078212484
 30
0.0
 10
4.080945940347998
 20
8.631682233758768
 30
0.0
  0
SPLINE
  5
8F
330
1F
100
AcDbEntity
  8
0
  6
Continuous
 62
     7
370
    25
100
AcDbSpline
210
0.0
220
0.0
230
1.0
 70
     8
 71
     3
 72
     8
 73
     4
 74
     0
 42
0.00000001
 43
0.00000001
 40
0.0
 40
0.0
 40
0.0
 40
0.0
 40
1.0
 40
1.0
 40
1.0
 40
1.0
 10
3.981630111673655
 20
8.836521130399596
 30
0.0
 10
3.929892744193553
 20
8.766260427484443
 30
0.0
 10
3.93444471967446
 20
8.74060383841024
 30
0.0
 10
3.995286038116378
 20
8.759551363176982
 30
0.0
  0
SPLINE
  5
90
330
1F
100
AcDbEntity
  8
0
  6
Continuous
 62
     7
370
    25
100
AcDbSpline
210
0.0
220
0.0
230
1.0
 70
     8
 71
     3
 72
     9
 73
     5
 74
     0
 42
0.00000001
 43
0.00000001
 40
0.0
 40
0.0
 40
0.0
 40
0.0
 40
0.4035190682931312
 40
1.0
 40
1.0
 40
1.0
 40
1.0
 10
4.476019075107518
 20
8.9988839778942
 30
0.0
 10
4.426398652833827
 20
9.082760573190868
 30
0.0
 10
4.185123782339562
 20
9.379631360968943
 30
0.0
 10
3.894397657980318
 20
8.983808926816526
 30
0.0
 10
3.981630111673655
 20
8.836521130399596
 30
0.0
  0
SPLINE
  5
91
330
1F
100
AcDbEntity
  8
0
  6
Continuous
 62
     7
370
    25
100
AcDbSpline
210
0.0
220
0.0
230
1.0
 70
     8
 71
     3
 72
    14
 73
    10
 74
     0
 42
0.00000001
 43
0.00000001
 40
0.0
 40
0.0
 40
0.0
 40
0.0
 40
0.1570823891301488
 40
0.2416161274140108
 40
0.3354319365887598
 40
0.4399412508208637
 40
0.5243847542303233
 40
0.6323939869827049
 40
1.0
 40
1.0
 40
1.0
 40
1.0
 10
4.932589168681006
 20
9.128041446691594
 30
0.0
 10
4.913985515672892
 20
9.117605251101676
 30
0.0
 10
4.868225009724125
 20
9.056307100740025
 30
0.0
 10
4.782362430963703
 20
8.958449973668095
 30
0.0
 10
4.788910300732319
 20
9.077067324094761
 30
0.0
 10
4.820770082921254
 20
9.148855085464616
 30
0.0
 10
4.743179511935256
 20
9.199162557162385
 30
0.0
 10
4.595810957781057
 20
9.259269914045651
 30
0.0
 10
4.503909150464871
 20
9.048375092333245
 30
0.0
 10
4.476019075107517
 20
8.998883977894202
 30
0.0
  0
SPLINE
  5
92
330
1F
100
AcDbEntity
  8
0
  6
Continuous
 62
     7
370
    25
100
AcDbSpline
210
0.0
220
0.0
230
1.0
 70
     8
 71
     3
 72
    12
 73
     8
 74
     0
 42
0.00000001
 43
0.00000001
 40
0.0
 40
0.0
 40
0.0
 40
0.0
 40
0.1091615062970432
 40
0.2292920411019616
 40
0.3373352281321448
 40
0.4328303049982588
 40
0.5561340954275078
 40
0.5561340954275078
 40
0.5561340954275078
 40
0.5561340954275078
 10
5.039692426432622
 20
9.223163662050657
 30
0.0
 10
5.024345979739436
 20
9.221416262657177
 30
0.0
 10
4.988531982976892
 20
9.22821366604915
 30
0.0
 10
4.948084605445721
 20
9.200475281919173
 30
0.0
 10
4.887559867152753
 20
9.205872429157246
 30
0.0
 10
4.899871005652404
 20
9.118318541952055
 30
0.0
 10
4.950047730890225
 20
9.18201726032199
 30
0.0
 10
4.932589168681006
 20
9.128041446691594
 30
0.0
  0
LINE
  5
93
330
1F
100
AcDbEntity
  8
0
  6
Continuous
 62
     7
370
    25
100
AcDbLine
 10
5.0292229963
 20
9.2714821025
 30
0.0
 11
5.0396924264
 21
9.2231636621
 31
0.0
  0
SPLINE
  5
94
330
1F
100
AcDbEntity
  8
0
  6
Continuous
 62
     7
370
    25
100
AcDbSpline
210
0.0
220
0.0
230
1.0
 70
     8
 71
     3
 72
     8
 73
     4
 74
     0
 42
0.00000001
 43
0.00000001
 40
0.0
 40
0.0
 40
0.0
 40
0.0
 40
1.0
 40
1.0
 40
1.0
 40
1.0
 10
5.110789807321144
 20
9.479577520965242
 30
0.0
 10
5.000056322275708
 20
9.50851212270073
 30
0.0
 10
4.900250010687943
 20
9.317109088281892
 30
0.0
 10
5.029222996327339
 20
9.271482102464155
 30
0.0
  0
SPLINE
  5
95
330
1F
100
AcDbEntity
  8
0
  6
Continuous
 62
     7
370
    25
100
AcDbSpline
210
0.0
220
0.0
230
1.0
 70
     8
 71
     3
 72
     8
 73
     4
 74
     0
 42
0.00000001
 43
0.00000001
 40
0.0
 40
0.0
 40
0.0
 40
0.0
 40
1.0
 40
1.0
 40
1.0
 40
1.0
 10
5.128876651382504
 20
9.611741449340697
 30
0.0
 10
5.026243156070247
 20
9.565436183747638
 30
0.0
 10
5.170049592573557
 20
9.538770489556507
 30
0.0
 10
5.110789807321144
 20
9.479577520965242
 30
0.0
  0
LINE
  5
96
330
1F
100
AcDbEntity
  8
0
  6
Continuous
 62
     7
370
    25
100
AcDbLine
 10
5.1169574283
 20
9.6646628
 30
0.0
 11
5.1288766514
 21
9.6117414493
 31
0.0
  0
SPLINE
  5
97
330
1F
100
AcDbEntity
  8
0
  6
Continuous
 62
     7
370
    25
100
AcDbSpline
210
0.0
220
0.0
230
1.0
 70
     8
 71
     3
 72
     8
 73
     4
 74
     0
 42
0.00000001
 43
0.00000001
 40
0.0
 40
0.0
 40
0.0
 40
0.0
 40
1.0
 40
1.0
 40
1.0
 40
1.0
 10
5.063057370768186
 20
9.887240046336109
 30
0.0
 10
4.984398570153761
 20
9.791120208106301
 30
0.0
 10
5.00236525598601
 20
9.71692779265517
 30
0.0
 10
5.116957428264932
 20
9.664662799982716
 30
0.0
  0
SPLINE
  5
98
330
1F
100
AcDbEntity
  8
0
  6
Continuous
 62
     7
370
    25
100
AcDbSpline
210
0.0
220
0.0
230
1.0
 70
     8
 71
     3
 72
     9
 73
     5
 74
     0
 42
0.00000001
 43
0.00000001
 40
0.0
 40
0.0
 40
0.0
 40
0.0
 40
0.3185898414356044
 40
1.0
 40
1.0
 40
1.0
 40
1.0
 10
5.121919868891069
 20
10.46640306329258
 30
0.0
 10
5.013145511766409
 20
10.51578915420694
 30
0.0
 10
5.001680855948653
 20
10.21655134989593
 30
0.0
 10
4.933727772998958
 20
10.06821573574444
 30
0.0
 10
5.063057370768186
 20
9.887240046336109
 30
0.0
  0
SPLINE
  5
99
330
1F
100
AcDbEntity
  8
0
  6
Continuous
 62
     7
370
    25
100
AcDbSpline
210
0.0
220
0.0
230
1.0
 70
     8
 71
     3
 72
     8
 73
     4
 74
     0
 42
0.00000001
 43
0.00000001
 40
0.0
 40
0.0
 40
0.0
 40
0.0
 40
1.0
 40
1.0
 40
1.0
 40
1.0
 10
5.213279580837496
 20
10.17156035655638
 30
0.0
 10
5.105457953064043
 20
10.23752748559057
 30
0.0
 10
5.233310397073876
 20
10.39135895717494
 30
0.0
 10
5.121919868891069
 20
10.46640306329258
 30
0.0
  0
SPLINE
  5
9A
330
1F
100
AcDbEntity
  8
0
  6
Continuous
 62
     7
370
    25
100
AcDbSpline
210
0.0
220
0.0
230
1.0
 70
     8
 71
     3
 72
     9
 73
     5
 74
     0
 42
0.00000001
 43
0.00000001
 40
0.0
 40
0.0
 40
0.0
 40
0.0
 40
0.2148468601328695
 40
1.0
 40
1.0
 40
1.0
 40
1.0
 10
5.461257826027152
 20
10.39111799346775
 30
0.0
 10
5.500188786703446
 20
10.45259741910627
 30
0.0
 10
5.311065090828226
 20
10.41303220082976
 30
0.0
 10
5.282787246542068
 20
10.26375491748227
 30
0.0
 10
5.213279580837496
 20
10.17156035655638
 30
0.0
  0
SPLINE
  5
9B
330
1F
100
AcDbEntity
  8
0
  6
Continuous
 62
     7
370
    25
100
AcDbSpline
210
0.0
220
0.0
230
1.0
 70
     8
 71
     3
 72
     8
 73
     4
 74
     0
 42
0.00000001
 43
0.00000001
 40
0.0
 40
0.0
 40
0.0
 40
0.0
 40
1.0
 40
1.0
 40
1.0
 40
1.0
 10
5.2759366793047
 20
9.872310749977455
 30
0.0
 10
5.391931028408598
 20
10.02931148533825
 30
0.0
 10
5.45370474398275
 20
10.20224723316835
 30
0.0
 10
5.461257826027152
 20
10.39111799346775
 30
0.0
  0
SPLINE
  5
9C
330
1F
100
AcDbEntity
  8
0
  6
Continuous
 62
     7
370
    25
100
AcDbSpline
210
0.0
220
0.0
230
1.0
 70
     8
 71
     3
 72
     8
 73
     4
 74
     0
 42
0.00000001
 43
0.00000001
 40
0.0
 40
0.0
 40
0.0
 40
0.0
 40
1.0
 40
1.0
 40
1.0
 40
1.0
 10
5.268761603040018
 20
9.687774036698515
 30
0.0
 10
5.288549464691697
 20
9.748425456113905
 30
0.0
 10
5.290941156779924
 20
9.809937693873549
 30
0.0
 10
5.2759366793047
 20
9.872310749977455
 30
0.0
  0
LINE
  5
9D
330
1F
100
AcDbEntity
  8
0
  6
Continuous
 62
     7
370
    25
100
AcDbLine
 10
5.6939232268
 20
9.941538617
 30
0.0
 11
5.268761603
 21
9.6877740367
 31
0.0
  0
SPLINE
  5
9E
330
1F
100
AcDbEntity
  8
0
  6
Continuous
 62
     7
370
    25
100
AcDbSpline
210
0.0
220
0.0
230
1.0
 70
     8
 71
     3
 72
     8
 73
     4
 74
     0
 42
0.00000001
 43
0.00000001
 40
0.0
 40
0.0
 40
0.0
 40
0.0
 40
1.0
 40
1.0
 40
1.0
 40
1.0
 10
6.053838826188612
 20
9.98816459141433
 30
0.0
 10
5.927656017237716
 20
10.42451437305014
 30
0.0
 10
5.706824809469014
 20
10.12452396771737
 30
0.0
 10
5.693923226760604
 20
9.941538617016867
 30
0.0
  0
LINE
  5
9F
330
1F
100
AcDbEntity
  8
0
  6
Continuous
 62
     7
370
    25
100
AcDbLine
 10
6.1350669975
 20
9.7964128427
 30
0.0
 11
6.0538388262
 21
9.9881645914
 31
0.0
  0
SPLINE
  5
A0
330
1F
100
AcDbEntity
  8
0
  6
Continuous
 62
     7
370
    25
100
AcDbSpline
210
0.0
220
0.0
230
1.0
 70
     8
 71
     3
 72
     8
 73
     4
 74
     0
 42
0.00000001
 43
0.00000001
 40
0.0
 40
0.0
 40
0.0
 40
0.0
 40
1.0
 40
1.0
 40
1.0
 40
1.0
 10
6.428021058021908
 20
10.12665196547363
 30
0.0
 10
6.31212028824189
 20
10.03269446757969
 30
0.0
 10
6.214468934738539
 20
9.922614759994095
 30
0.0
 10
6.135066997511855
 20
9.79641284271684
 30
0.0
  0
LINE
  5
A1
330
1F
100
AcDbEntity
  8
0
  6
Continuous
 62
     7
370
    25
100
AcDbLine
 10
6.3385713706
 20
10.3703645151
 30
0.0
 11
6.428021058
 21
10.1266519655
 31
0.0
  0
SPLINE
  5
A2
330
1F
100
AcDbEntity
  8
0
  6
Continuous
 62
     7
370
    25
100
AcDbSpline
210
0.0
220
0.0
230
1.0
 70
     8
 71
     3
 72
     8
 73
     4
 74
     0
 42
0.00000001
 43
0.00000001
 40
0.0
 40
0.0
 40
0.0
 40
0.0
 40
1.0
 40
1.0
 40
1.0
 40
1.0
 10
6.141611192489081
 20
10.51130548260373
 30
0.0
 10
6.168670073743602
 20
10.39274093415859
 30
0.0
 10
6.234323466444451
 20
10.34576061165637
 30
0.0
 10
6.338571370591628
 20
10.37036451509708
 30
0.0
  0
SPLINE
  5
A3
330
1F
100
AcDbEntity
  8
0
  6
Continuous
 62
     7
370
    25
100
AcDbSpline
210
0.0
220
0.0
230
1.0
 70
     8
 71
     3
 72
    12
 73
     8
 74
     0
 42
0.00000001
 43
0.00000001
 40
0.0
 40
0.0
 40
0.0
 40
0.0
 40
0.2906995591070206
 40
0.4541697525792489
 40
0.6131254193905085
 40
0.7337839407371948
 40
1.0
 40
1.0
 40
1.0
 40
1.0
 10
6.304575633860779
 20
10.90521447868266
 30
0.0
 10
6.215289295876589
 20
10.91081254536142
 30
0.0
 10
6.175039552248933
 20
10.86015913982306
 30
0.0
 10
6.170363787223626
 20
10.75401906103461
 30
0.0
 10
6.146400841899698
 20
10.6831941517748
 30
0.0
 10
6.188881387843623
 20
10.59021415251146
 30
0.0
 10
6.070906517526855
 20
10.54115135022755
 30
0.0
 10
6.141611192489081
 20
10.51130548260373
 30
0.0
  0
LINE
  5
A4
330
1F
100
AcDbEntity
  8
0
  6
Continuous
 62
     7
370
    25
100
AcDbLine
 10
6.6204193318
 20
10.8854117393
 30
0.0
 11
6.3045756339
 21
10.9052144787
 31
0.0
  0
SPLINE
  5
A5
330
1F
100
AcDbEntity
  8
0
  6
Continuous
 62
     7
370
    25
100
AcDbSpline
210
0.0
220
0.0
230
1.0
 70
     8
 71
     3
 72
     9
 73
     5
 74
     0
 42
0.00000001
 43
0.00000001
 40
0.0
 40
0.0
 40
0.0
 40
0.0
 40
0.4934630144211384
 40
1.0
 40
1.0
 40
1.0
 40
1.0
 10
6.731697566435272
 20
10.71285911474529
 30
0.0
 10
6.742583070380372
 20
10.77466942563091
 30
0.0
 10
6.753877727666183
 20
10.8361632375385
 30
0.0
 10
6.650109127520238
 20
10.87308139706918
 30
0.0
 10
6.620419331782262
 20
10.8854117393056
 30
0.0
  0
SPLINE
  5
A6
330
1F
100
AcDbEntity
  8
0
  6
Continuous
 62
     7
370
    25
100
AcDbSpline
210
0.0
220
0.0
230
1.0
 70
     8
 71
     3
 72
    11
 73
     7
 74
     0
 42
0.00000001
 43
0.00000001
 40
0.0
 40
0.0
 40
0.0
 40
0.0
 40
0.4092503402706157
 40
0.6199563293241199
 40
0.8045287701720466
 40
1.0
 40
1.0
 40
1.0
 40
1.0
 10
7.244711554251575
 20
10.72364397012982
 30
0.0
 10
7.162361085645657
 20
10.70737240475145
 30
0.0
 10
7.083325215062359
 20
10.58477907539739
 30
0.0
 10
6.917174049909144
 20
10.57834418082726
 30
0.0
 10
6.792926590022843
 20
10.61712407496263
 30
0.0
 10
6.780370716928701
 20
10.70841960575548
 30
0.0
 10
6.731697566435272
 20
10.71285911474529
 30
0.0
  0
LINE
  5
A7
330
1F
100
AcDbEntity
  8
0
  6
Continuous
 62
     7
370
    25
100
AcDbLine
 10
7.4701467335
 20
10.7317253708
 30
0.0
 11
7.2447115543
 21
10.7236439701
 31
0.0
  0
LINE
  5
A8
330
1F
100
AcDbEntity
  8
0
  6
Continuous
 62
     7
370
    25
100
AcDbLine
 10
7.6486821924
 20
10.6425541216
 30
0.0
 11
7.4701467335
 21
10.7317253708
 31
0.0
  0
SPLINE
  5
A9
330
1F
100
AcDbEntity
  8
0
  6
Continuous
 62
     7
370
    25
100
AcDbSpline
210
0.0
220
0.0
230
1.0
 70
     8
 71
     3
 72
     9
 73
     5
 74
     0
 42
0.00000001
 43
0.00000001
 40
0.0
 40
0.0
 40
0.0
 40
0.0
 40
0.4236736435926225
 40
1.0
 40
1.0
 40
1.0
 40
1.0
 10
7.614429404167887
 20
10.55834826795864
 30
0.0
 10
7.572670422808304
 20
10.5374018045272
 30
0.0
 10
7.555695396684054
 20
10.65806163382667
 30
0.0
 10
7.685026523932596
 20
10.58193102701363
 30
0.0
 10
7.648682192411572
 20
10.64255412157235
 30
0.0
  0
LINE
  5
AA
330
1F
100
AcDbEntity
  8
0
  6
Continuous
 62
     7
370
    25
100
AcDbLine
 10
7.6875494892
 20
10.4792575439
 30
0.0
 11
7.6144294042
 21
10.558348268
 31
0.0
  0
LINE
  5
AB
330
1F
100
AcDbEntity
  8
0
  6
Continuous
 62
     7
370
    25
100
AcDbLine
 10
7.6875494892
 20
10.4621720547
 30
0.0
 11
7.6875494892
 21
10.4792575439
 31
0.0
  0
SPLINE
  5
AC
330
1F
100
AcDbEntity
  8
0
  6
Continuous
 62
     7
370
    25
100
AcDbSpline
210
0.0
220
0.0
230
1.0
 70
     8
 71
     3
 72
     8
 73
     4
 74
     0
 42
0.00000001
 43
0.00000001
 40
0.0
 40
0.0
 40
0.0
 40
0.0
 40
1.0
 40
1.0
 40
1.0
 40
1.0
 10
7.706143274948184
 20
10.40368318593546
 30
0.0
 10
7.716889282313499
 20
10.42779085948428
 30
0.0
 10
7.710691353728708
 20
10.44728714907305
 30
0.0
 10
7.687549489193814
 20
10.46217205470178
 30
0.0
  0
LINE
  5
AD
330
1F
100
AcDbEntity
  8
0
  6
Continuous
 62
     7
370
    25
100
AcDbLine
 10
7.5568443138
 20
10.4036831859
 30
0.0
 11
7.7061432749
 21
10.4036831859
 31
0.0
  0
SPLINE
  5
AE
330
1F
100
AcDbEntity
  8
0
  6
Continuous
 62
     7
370
    25
100
AcDbSpline
210
0.0
220
0.0
230
1.0
 70
     8
 71
     3
 72
     8
 73
     4
 74
     0
 42
0.00000001
 43
0.00000001
 40
0.0
 40
0.0
 40
0.0
 40
0.0
 40
1.0
 40
1.0
 40
1.0
 40
1.0
 10
7.430848921798483
 20
10.36107740106573
 30
0.0
 10
7.459013149988519
 20
10.43260772310565
 30
0.0
 10
7.521443297316229
 20
10.34630360873785
 30
0.0
 10
7.556844313843741
 20
10.40368318593546
 30
0.0
  0
LINE
  5
AF
330
1F
100
AcDbEntity
  8
0
  6
Continuous
 62
     7
370
    25
100
AcDbLine
 10
7.3373282007
 20
10.3277630636
 30
0.0
 11
7.4308489218
 21
10.3610774011
 31
0.0
  0
SPLINE
  5
B0
330
1F
100
AcDbEntity
  8
0
  6
Continuous
 62
     7
370
    25
100
AcDbSpline
210
0.0
220
0.0
230
1.0
 70
     8
 71
     3
 72
     8
 73
     4
 74
     0
 42
0.00000001
 43
0.00000001
 40
0.0
 40
0.0
 40
0.0
 40
0.0
 40
1.0
 40
1.0
 40
1.0
 40
1.0
 10
7.343462946764803
 20
10.22051014395698
 30
0.0
 10
7.423241000343192
 20
10.25786496181199
 30
0.0
 10
7.265411511292605
 20
10.2856815690848
 30
0.0
 10
7.337328200698387
 20
10.32776306360264
 30
0.0
  0
LINE
  5
B1
330
1F
100
AcDbEntity
  8
0
  6
Continuous
 62
     7
370
    25
100
AcDbLine
 10
6.7618077419
 20
10.1715603566
 30
0.0
 11
7.3434629468
 21
10.220510144
 31
0.0
  0
SPLINE
  5
B2
330
1F
100
AcDbEntity
  8
0
  6
Continuous
 62
     7
370
    25
100
AcDbSpline
210
0.0
220
0.0
230
1.0
 70
     8
 71
     3
 72
    26
 73
    22
 74
     0
 42
0.00000001
 43
0.00000001
 40
0.0
 40
0.0
 40
0.0
 40
0.0
 40
0.0883004861916142
 40
0.1101430903107197
 40
0.2018951630639839
 40
0.2641403763855747
 40
0.2916457310154831
 40
0.3169907968175358
 40
0.3422587252072732
 40
0.367651671971282
 40
0.3891584519507046
 40
0.4253658109871012
 40
0.5068707551785692
 40
0.601047765648838
 40
0.6531765234766893
 40
0.6848907970548115
 40
0.7383989903174875
 40
0.7983860199462034
 40
0.8506524768918884
 40
0.9214885243315576
 40
1.0
 40
1.0
 40
1.0
 40
1.0
 10
7.739157535102181
 20
9.936056101504695
 30
0.0
 10
7.672444309610176
 20
9.939661986598056
 30
0.0
 10
7.720864849966926
 20
9.754732455728972
 30
0.0
 10
7.611623143032878
 20
9.8604856536347
 30
0.0
 10
7.484340222866349
 20
9.81873640358429
 30
0.0
 10
7.437529152165976
 20
9.724784444210592
 30
0.0
 10
7.413922424948952
 20
9.654466302667467
 30
0.0
 10
7.454828567811346
 20
9.61516638960897
 30
0.0
 10
7.424152615216362
 20
9.571656041627033
 30
0.0
 10
7.433082086422779
 20
9.528082204210605
 30
0.0
 10
7.385022584585261
 20
9.485684141884008
 30
0.0
 10
7.326643507674649
 20
9.578645099825769
 30
0.0
 10
7.196405024914595
 20
9.574813049327727
 30
0.0
 10
7.068156007501989
 20
9.624552028861224
 30
0.0
 10
6.967379885545357
 20
9.629973238247864
 30
0.0
 10
6.876397636820876
 20
9.638908304968478
 30
0.0
 10
6.872996902560778
 20
9.745229779388577
 30
0.0
 10
6.827793525441756
 20
9.827017514310501
 30
0.0
 10
6.801384224282763
 20
9.933890535155781
 30
0.0
 10
6.836334088149326
 20
10.06131918983916
 30
0.0
 10
6.728682599900238
 20
10.12289302493993
 30
0.0
 10
6.761807741853919
 20
10.17156035655638
 30
0.0
  0
SPLINE
  5
B3
330
1F
100
AcDbEntity
  8
0
  6
Continuous
 62
     7
370
    25
100
AcDbSpline
210
0.0
220
0.0
230
1.0
 70
     8
 71
     3
 72
    14
 73
    10
 74
     0
 42
0.00000001
 43
0.00000001
 40
0.0
 40
0.0
 40
0.0
 40
0.0
 40
0.2562205770905848
 40
0.3857739662691532
 40
0.4638228872877901
 40
0.6377282131981885
 40
0.675857202104041
 40
0.7777513549646462
 40
1.0
 40
1.0
 40
1.0
 40
1.0
 10
7.874810436559696
 20
10.41642587742423
 30
0.0
 10
7.915950034648973
 20
10.33405361834662
 30
0.0
 10
7.845995880599856
 20
10.3362822482787
 30
0.0
 10
7.719912515113196
 20
10.28385053316486
 30
0.0
 10
7.803102052465413
 20
10.2127079023521
 30
0.0
 10
7.685498295299173
 20
10.16803630539586
 30
0.0
 10
7.734063401472666
 20
10.11670547177253
 30
0.0
 10
7.722030009781685
 20
10.04072790404061
 30
0.0
 10
7.735433946038124
 20
9.980988521315552
 30
0.0
 10
7.739157535102181
 20
9.936056101504695
 30
0.0
  0
LINE
  5
B4
330
1F
100
AcDbEntity
  8
0
  6
Continuous
 62
     7
370
    25
100
AcDbLine
 10
8.0780499341
 20
10.4036831859
 30
0.0
 11
7.8748104366
 21
10.4164258774
 31
0.0
  0
SPLINE
  5
B5
330
1F
100
AcDbEntity
  8
0
  6
Continuous
 62
     7
370
    25
100
AcDbSpline
210
0.0
220
0.0
230
1.0
 70
     8
 71
     3
 72
     9
 73
     5
 74
     0
 42
0.00000001
 43
0.00000001
 40
0.0
 40
0.0
 40
0.0
 40
0.0
 40
0.438396660307294
 40
1.0
 40
1.0
 40
1.0
 40
1.0
 10
8.309607842993557
 20
9.815100927569715
 30
0.0
 10
8.35499199343144
 20
9.912645041512576
 30
0.0
 10
8.523555239271486
 20
10.18990758792538
 30
0.0
 10
8.21976204019764
 20
10.41525900140234
 30
0.0
 10
8.078049934118763
 20
10.40368318593546
 30
0.0
  0
LINE
  5
B6
330
1F
100
AcDbEntity
  8
0
  6
Continuous
 62
     7
370
    25
100
AcDbLine
 10
8.3206144803
 20
9.734462145
 30
0.0
 11
8.309607843
 21
9.8151009276
 31
0.0
  0
SPLINE
  5
B7
330
1F
100
AcDbEntity
  8
0
  6
Continuous
 62
     7
370
    25
100
AcDbSpline
210
0.0
220
0.0
230
1.0
 70
     8
 71
     3
 72
    12
 73
     8
 74
     0
 42
0.00000001
 43
0.00000001
 40
0.0
 40
0.0
 40
0.0
 40
0.0
 40
0.1584305966141361
 40
0.2775076588218016
 40
0.4689562574719136
 40
0.7260310572420406
 40
1.0
 40
1.0
 40
1.0
 40
1.0
 10
8.573674895274202
 20
9.300516124060627
 30
0.0
 10
8.505080641737445
 20
9.334952259374417
 30
0.0
 10
8.61551497998358
 20
9.361696828994392
 30
0.0
 10
8.533368692579065
 20
9.458877447049128
 30
0.0
 10
8.456766175104681
 20
9.522977933898911
 30
0.0
 10
8.352600586366291
 20
9.632997817873619
 30
0.0
 10
8.220429713555967
 20
9.634137170256476
 30
0.0
 10
8.320614480280819
 20
9.734462145044859
 30
0.0
  0
LINE
  5
B8
330
1F
100
AcDbEntity
  8
0
  6
Continuous
 62
     7
370
    25
100
AcDbLine
 10
8.547881971
 20
9.1570863979
 30
0.0
 11
8.5736748953
 21
9.3005161241
 31
0.0
  0
SPLINE
  5
B9
330
1F
100
AcDbEntity
  8
0
  6
Continuous
 62
     7
370
    25
100
AcDbSpline
210
0.0
220
0.0
230
1.0
 70
     8
 71
     3
 72
     9
 73
     5
 74
     0
 42
0.00000001
 43
0.00000001
 40
0.0
 40
0.0
 40
0.0
 40
0.0
 40
0.6146583140878822
 40
1.0
 40
1.0
 40
1.0
 40
1.0
 10
8.933000337679543
 20
8.939404799294378
 30
0.0
 10
8.875786500791229
 20
8.80256620618945
 30
0.0
 10
8.531602257805247
 20
8.871497172436223
 30
0.0
 10
8.63829911670175
 20
9.113485367876901
 30
0.0
 10
8.547881970952222
 20
9.157086397946271
 30
0.0
  0
SPLINE
  5
BA
330
1F
100
AcDbEntity
  8
0
  6
Continuous
 62
     7
370
    25
100
AcDbSpline
210
0.0
220
0.0
230
1.0
 70
     8
 71
     3
 72
    13
 73
     9
 74
     0
 42
0.00000001
 43
0.00000001
 40
0.0
 40
0.0
 40
0.0
 40
0.0
 40
0.4965358484002821
 40
0.5833071128255432
 40
0.8221356069519886
 40
0.8766156120040092
 40
0.927390152371717
 40
1.0
 40
1.0
 40
1.0
 40
1.0
 10
9.616841964932853
 20
9.157086397946271
 30
0.0
 10
9.595617837084548
 20
9.326610248601277
 30
0.0
 10
9.28436035842066
 20
9.535045225249856
 30
0.0
 10
9.02923205004334
 20
9.342813584153893
 30
0.0
 10
8.919656575058108
 20
9.20707435025421
 30
0.0
 10
8.97627395643726
 20
9.060842533409526
 30
0.0
 10
8.894250653271904
 20
9.02291755350662
 30
0.0
 10
8.929238327924443
 20
8.961928441281014
 30
0.0
 10
8.933000337679543
 20
8.939404799294378
 30
0.0
  0
LINE
  5
BB
330
1F
100
AcDbEntity
  8
0
  6
Continuous
 62
     7
370
    25
100
AcDbLine
 10
10.1189428992
 20
9.2325050398
 30
0.0
 11
9.6168419649
 21
9.1570863979
 31
0.0
  0
SPLINE
  5
BC
330
1F
100
AcDbEntity
  8
0
  6
Continuous
 62
     7
370
    25
100
AcDbSpline
210
0.0
220
0.0
230
1.0
 70
     8
 71
     3
 72
     9
 73
     5
 74
     0
 42
0.00000001
 43
0.00000001
 40
0.0
 40
0.0
 40
0.0
 40
0.0
 40
0.6543883670415029
 40
1.0
 40
1.0
 40
1.0
 40
1.0
 10
10.24522333827031
 20
9.638157347830768
 30
0.0
 10
10.20533551968091
 20
9.554198038710135
 30
0.0
 10
10.18035963733294
 20
9.410472831597467
 30
0.0
 10
10.10219554742718
 20
9.288750628333766
 30
0.0
 10
10.11894289915202
 20
9.232505039839259
 30
0.0
  0
SPLINE
  5
BD
330
1F
100
AcDbEntity
  8
0
  6
Continuous
 62
     7
370
    25
100
AcDbSpline
210
0.0
220
0.0
230
1.0
 70
     8
 71
     3
 72
    16
 73
    12
 74
     0
 42
0.00000001
 43
0.00000001
 40
0.0
 40
0.0
 40
0.0
 40
0.0
 40
0.2288779259170711
 40
0.3343894876180846
 40
0.430426677765125
 40
0.4930998459854756
 40
0.5274165720861617
 40
0.5963077820936094
 40
0.7171162454524578
 40
0.8629081659180473
 40
1.0
 40
1.0
 40
1.0
 40
1.0
 10
11.09542413644829
 20
9.651815283882108
 30
0.0
 10
11.05022447298497
 20
9.70753326764612
 30
0.0
 10
10.94162057390414
 20
9.80127235074937
 30
0.0
 10
10.78719795335298
 20
9.747860395573642
 30
0.0
 10
10.72535762309484
 20
9.693383858406838
 30
0.0
 10
10.67702517054645
 20
9.615541823125563
 30
0.0
 10
10.62695920125907
 20
9.661736734198666
 30
0.0
 10
10.57744953000453
 20
9.718367374663915
 30
0.0
 10
10.45331759506185
 20
9.732571216576343
 30
0.0
 10
10.31660674331158
 20
9.771406602850284
 30
0.0
 10
10.2179518810634
 20
9.696101666253568
 30
0.0
 10
10.24522333827031
 20
9.638157347830768
 30
0.0
  0
SPLINE
  5
BE
330
1F
100
AcDbEntity
  8
0
  6
Continuous
 62
     7
370
    25
100
AcDbSpline
210
0.0
220
0.0
230
1.0
 70
     8
 71
     3
 72
    15
 73
    11
 74
     0
 42
0.00000001
 43
0.00000001
 40
0.0
 40
0.0
 40
0.0
 40
0.0
 40
0.2075341248773491
 40
0.2515392455422886
 40
0.3381917807264027
 40
0.4170919831950896
 40
0.6422251817482991
 40
0.7638871433361057
 40
0.889962492497263
 40
1.0
 40
1.0
 40
1.0
 40
1.0
 10
11.40881302367791
 20
9.549099636585714
 30
0.0
 10
11.45278272657089
 20
9.55943079931558
 30
0.0
 10
11.50905142214246
 20
9.577557052687824
 30
0.0
 10
11.52890746507108
 20
9.674208314667068
 30
0.0
 10
11.46447825960025
 20
9.630461832897028
 30
0.0
 10
11.38716317453654
 20
9.610556669345108
 30
0.0
 10
11.31628793836084
 20
9.693955241044348
 30
0.0
 10
11.19503046049899
 20
9.717236272640967
 30
0.0
 10
11.16294732380275
 20
9.632803910488786
 30
0.0
 10
11.10390370453371
 20
9.60913397115943
 30
0.0
 10
11.09542413644829
 20
9.651815283882108
 30
0.0
  0
SPLINE
  5
BF
330
1F
100
AcDbEntity
  8
0
  6
Continuous
 62
     7
370
    25
100
AcDbSpline
210
0.0
220
0.0
230
1.0
 70
     8
 71
     3
 72
    13
 73
     9
 74
     0
 42
0.00000001
 43
0.00000001
 40
0.0
 40
0.0
 40
0.0
 40
0.0
 40
0.254448964988321
 40
0.3873908841428989
 40
0.5829838793902495
 40
0.6470231369792784
 40
0.7295806009716209
 40
1.0
 40
1.0
 40
1.0
 40
1.0
 10
11.15071169732257
 20
8.644402291426527
 30
0.0
 10
11.07299254782451
 20
8.746903458233472
 30
0.0
 10
11.2343225347972
 20
8.86482700302183
 30
0.0
 10
11.18605409879482
 20
9.052368317326758
 30
0.0
 10
11.20786333029404
 20
9.280651513843353
 30
0.0
 10
11.34148523612088
 20
9.216197282476502
 30
0.0
 10
11.46723232915126
 20
9.328749660337095
 30
0.0
 10
11.4900717587299
 20
9.451020816865881
 30
0.0
 10
11.40881302367791
 20
9.549099636585714
 30
0.0
  0
SPLINE
  5
C0
330
1F
100
AcDbEntity
  8
0
  6
Continuous
 62
     7
370
    25
100
AcDbSpline
210
0.0
220
0.0
230
1.0
 70
     8
 71
     3
 72
    14
 73
    10
 74
     0
 42
0.00000001
 43
0.00000001
 40
0.0
 40
0.0
 40
0.0
 40
0.0
 40
0.2460622918725874
 40
0.3115619383934162
 40
0.3948024923969862
 40
0.5059968780082014
 40
0.6372760528638634
 40
0.7741578152783474
 40
1.0
 40
1.0
 40
1.0
 40
1.0
 10
15.00388046126421
 20
4.6723250526489
 30
0.0
 10
14.64528925619102
 20
4.993690147586276
 30
0.0
 10
14.40767723911598
 20
5.539169180666962
 30
0.0
 10
14.00479162786195
 20
6.168182360968684
 30
0.0
 10
13.75808542802143
 20
6.594188190553736
 30
0.0
 10
13.39546246842092
 20
7.092223475124844
 30
0.0
 10
12.93745650724501
 20
7.651918657438359
 30
0.0
 10
12.1644477442786
 20
8.187552572945961
 30
0.0
 10
11.56595019446989
 20
8.531012379660028
 30
0.0
 10
11.15071169732257
 20
8.644402291426527
 30
0.0
  0
SPLINE
  5
C1
330
1F
100
AcDbEntity
  8
0
  6
Continuous
 62
     7
370
    25
100
AcDbSpline
210
0.0
220
0.0
230
1.0
 70
     8
 71
     3
 72
    23
 73
    19
 74
     0
 42
0.00000001
 43
0.00000001
 40
0.0
 40
0.0
 40
0.0
 40
0.0
 40
0.0810618590029968
 40
0.1276607740836882
 40
0.1715903510536741
 40
0.2123579115348597
 40
0.2591792024705276
 40
0.2873778636500822
 40
0.3128953523189148
 40
0.3403798746325967
 40
0.3702871523559867
 40
0.3953999469425337
 40
0.4258557969998122
 40
0.4700752937629411
 40
0.4984322530961004
 40
0.6073770482892443
 40
0.8935057476859473
 40
1.0
 40
1.0
 40
1.0
 40
1.0
 10
16.60463198620673
 20
1.921580967199029
 30
0.0
 10
16.74946506150064
 20
1.899975484298104
 30
0.0
 10
16.96926428856992
 20
1.957864229692486
 30
0.0
 10
17.26421420475436
 20
2.024007259305515
 30
0.0
 10
17.48510390878497
 20
2.092760704988571
 30
0.0
 10
17.70560755787121
 20
2.169413047630793
 30
0.0
 10
17.87575584768862
 20
2.281783379815542
 30
0.0
 10
17.9923984134182
 20
2.433982508684386
 30
0.0
 10
17.95118863947759
 20
2.587578624756189
 30
0.0
 10
17.84553971605017
 20
2.689057033701444
 30
0.0
 10
17.7512098176959
 20
2.801227767345479
 30
0.0
 10
17.62407050755346
 20
2.883819013254786
 30
0.0
 10
17.4750555328621
 20
2.978221723476821
 30
0.0
 10
17.3005826429938
 20
3.033751507763338
 30
0.0
 10
17.01196066703841
 20
3.172445127247235
 30
0.0
 10
16.37009231827575
 20
3.554022547535939
 30
0.0
 10
15.63344058419941
 20
4.056673873543256
 30
0.0
 10
15.15239156706247
 20
4.556869869511789
 30
0.0
 10
15.00388046126421
 20
4.6723250526489
 30
0.0
  0
SPLINE
  5
C2
330
1F
100
AcDbEntity
  8
0
  6
Continuous
 62
     7
370
    25
100
AcDbSpline
210
0.0
220
0.0
230
1.0
 70
     8
 71
     3
 72
    14
 73
    10
 74
     0
 42
0.00000001
 43
0.00000001
 40
0.0
 40
0.0
 40
0.0
 40
0.0
 40
0.1594488503731615
 40
0.3741117696186428
 40
0.5059226588784106
 40
0.6898035461250609
 40
0.7794904623294772
 40
0.8644521663670414
 40
1.0
 40
1.0
 40
1.0
 40
1.0
 10
15.43877146492355
 20
2.220337496757986
 30
0.0
 10
15.5092810015769
 20
2.248903737534222
 30
0.0
 10
15.65423605310814
 20
2.184358920859265
 30
0.0
 10
15.84019775075409
 20
2.097081350846656
 30
0.0
 10
16.02809384498031
 20
1.961363150116088
 30
0.0
 10
16.20847885261383
 20
2.019317446477505
 30
0.0
 10
16.34745303881319
 20
1.953068180396717
 30
0.0
 10
16.45928817713807
 20
1.907054784023337
 30
0.0
 10
16.57069746338522
 20
1.86873721084226
 30
0.0
 10
16.60463198620673
 20
1.921580967199029
 30
0.0
  0
SPLINE
  5
C3
330
1F
100
AcDbEntity
  8
0
  6
Continuous
 62
     7
370
    25
100
AcDbSpline
210
0.0
220
0.0
230
1.0
 70
     8
 71
     3
 72
     9
 73
     5
 74
     0
 42
0.00000001
 43
0.00000001
 40
0.0
 40
0.0
 40
0.0
 40
0.0
 40
0.5204082532698416
 40
1.0
 40
1.0
 40
1.0
 40
1.0
 10
15.0828806127441
 20
2.300829413276587
 30
0.0
 10
15.1468936973432
 20
2.298530715068763
 30
0.0
 10
15.25106395175455
 20
2.157670281632397
 30
0.0
 10
15.38391619593355
 20
2.2750015244135
 30
0.0
 10
15.43877146492355
 20
2.220337496757986
 30
0.0
  0
SPLINE
  5
C4
330
1F
100
AcDbEntity
  8
0
  6
Continuous
 62
     7
370
    25
100
AcDbSpline
210
0.0
220
0.0
230
1.0
 70
     8
 71
     3
 72
     8
 73
     4
 74
     0
 42
0.00000001
 43
0.00000001
 40
0.0
 40
0.0
 40
0.0
 40
0.0
 40
1.0
 40
1.0
 40
1.0
 40
1.0
 10
14.21387984189878
 20
2.850098309518727
 30
0.0
 10
14.51123591945269
 20
2.679103608507934
 30
0.0
 10
14.8009028430678
 20
2.49601397642722
 30
0.0
 10
15.0828806127441
 20
2.300829413276587
 30
0.0
  0
SPLINE
  5
C5
330
1F
100
AcDbEntity
  8
0
  6
Continuous
 62
     7
370
    25
100
AcDbSpline
210
0.0
220
0.0
230
1.0
 70
     8
 71
     3
 72
     8
 73
     4
 74
     0
 42
0.00000001
 43
0.00000001
 40
0.0
 40
0.0
 40
0.0
 40
0.0
 40
1.0
 40
1.0
 40
1.0
 40
1.0
 10
13.43824536519168
 20
3.2730344702142
 30
0.0
 10
13.68317488203149
 20
3.108245640115323
 30
0.0
 10
13.91595650541412
 20
2.91455140832095
 30
0.0
 10
14.21387984189878
 20
2.850098309518727
 30
0.0
  0
SPLINE
  5
C6
330
1F
100
AcDbEntity
  8
0
  6
Continuous
 62
     7
370
    25
100
AcDbSpline
210
0.0
220
0.0
230
1.0
 70
     8
 71
     3
 72
    10
 73
     6
 74
     0
 42
0.00000001
 43
0.00000001
 40
0.0
 40
0.0
 40
0.0
 40
0.0
 40
0.6490751933675024
 40
0.7372814977608988
 40
1.0
 40
1.0
 40
1.0
 40
1.0
 10
12.94214187192055
 20
3.556226880956468
 30
0.0
 10
13.01890447542977
 20
3.429991779891806
 30
0.0
 10
13.19416169130161
 20
3.443393348300708
 30
0.0
 10
13.34354088759354
 20
3.289090167151014
 30
0.0
 10
13.45353525240505
 20
3.372550300541509
 30
0.0
 10
13.43824536519168
 20
3.2730344702142
 30
0.0
  0
SPLINE
  5
C7
330
1F
100
AcDbEntity
  8
0
  6
Continuous
 62
     7
370
    25
100
AcDbSpline
210
0.0
220
0.0
230
1.0
 70
     8
 71
     3
 72
    17
 73
    13
 74
     0
 42
0.00000001
 43
0.00000001
 40
0.0
 40
0.0
 40
0.0
 40
0.0
 40
0.333091252340267
 40
0.4035851378789598
 40
0.5088255341172556
 40
0.6095339364428405
 40
0.6915201214115837
 40
0.7638920471515688
 40
0.8266535980645843
 40
0.8746807271880799
 40
0.915405572681826
 40
1.0
 40
1.0
 40
1.0
 40
1.0
 10
12.44495881633505
 20
1.950374468665469
 30
0.0
 10
12.35624341012684
 20
2.149975721206884
 30
0.0
 10
12.26424207987869
 20
2.444520447684418
 30
0.0
 10
12.37567083903631
 20
2.780245908994817
 30
0.0
 10
12.32917015959132
 20
2.976693017012094
 30
0.0
 10
12.44758199217326
 20
3.155703120873179
 30
0.0
 10
12.41977649368178
 20
3.33163689425699
 30
0.0
 10
12.49636608309644
 20
3.48622054633476
 30
0.0
 10
12.63302995870837
 20
3.493801524105196
 30
0.0
 10
12.71340252222924
 20
3.570614000645628
 30
0.0
 10
12.83393121931539
 20
3.568894696896018
 30
0.0
 10
12.92006001747179
 20
3.658806614204829
 30
0.0
 10
12.94214187192055
 20
3.556226880956468
 30
0.0
  0
SPLINE
  5
C8
330
1F
100
AcDbEntity
  8
0
  6
Continuous
 62
     7
370
    25
100
AcDbSpline
210
0.0
220
0.0
230
1.0
 70
     8
 71
     3
 72
    34
 73
    30
 74
     0
 42
0.00000001
 43
0.00000001
 40
0.0
 40
0.0
 40
0.0
 40
0.0
 40
0.2230582684021017
 40
0.2946470468741779
 40
0.3450902889655339
 40
0.3953754984811063
 40
0.4573434082325042
 40
0.510270265795502
 40
0.5576032987105174
 40
0.5852456165222838
 40
0.6176244025799376
 40
0.6452684245448589
 40
0.7009429495374766
 40
0.7390685150910007
 40
0.7495451436499778
 40
0.77311594458917
 40
0.7944174515406802
 40
0.8197787124925102
 40
0.8372254168969248
 40
0.8524671887731314
 40
0.8727319949885789
 40
0.891435999000617
 40
0.9071195372264194
 40
0.9220019461321043
 40
0.9466389090506167
 40
0.9552386036542484
 40
0.9705856409744786
 40
0.9861181304594627
 40
1.0
 40
1.0
 40
1.0
 40
1.0
 10
11.69633829405389
 20
0.7399982923444162
 30
0.0
 10
11.8266010342939
 20
0.7749418137694782
 30
0.0
 10
12.06381707509135
 20
0.6116190230886829
 30
0.0
 10
12.28221305058191
 20
0.7252469252481374
 30
0.0
 10
12.39602947087526
 20
0.7688875410043173
 30
0.0
 10
12.46328248299092
 20
0.869762101355126
 30
0.0
 10
12.46588694939557
 20
0.9875957119097115
 30
0.0
 10
12.44244574868666
 20
1.100772705937467
 30
0.0
 10
12.35420918240354
 20
1.162080921548102
 30
0.0
 10
12.3821908728585
 20
1.240573048207132
 30
0.0
 10
12.42215364355356
 20
1.289654923715963
 30
0.0
 10
12.40771192253969
 20
1.373242889363829
 30
0.0
 10
12.45091528745513
 20
1.459042758041369
 30
0.0
 10
12.36826915151975
 20
1.52511126438061
 30
0.0
 10
12.40739577783522
 20
1.568110730051179
 30
0.0
 10
12.45046430818635
 20
1.554892068891682
 30
0.0
 10
12.49232893694207
 20
1.587184459228008
 30
0.0
 10
12.52205403760145
 20
1.614651568672096
 30
0.0
 10
12.54548103568978
 20
1.661219470333851
 30
0.0
 10
12.49715708101049
 20
1.680332995518938
 30
0.0
 10
12.52948011921249
 20
1.723612101009851
 30
0.0
 10
12.50517012704596
 20
1.757410933998215
 30
0.0
 10
12.51859427266306
 20
1.796789295511312
 30
0.0
 10
12.47375900968105
 20
1.816335325073988
 30
0.0
 10
12.51187593347888
 20
1.87827304374089
 30
0.0
 10
12.46015844272518
 20
1.862687005085869
 30
0.0
 10
12.48686688125969
 20
1.910086601587691
 30
0.0
 10
12.44054729113238
 20
1.915204776618604
 30
0.0
 10
12.443739527893
 20
1.941009647730297
 30
0.0
 10
12.44495881633505
 20
1.950374468665469
 30
0.0
  0
SPLINE
  5
C9
330
1F
100
AcDbEntity
  8
0
  6
Continuous
 62
     7
370
    25
100
AcDbSpline
210
0.0
220
0.0
230
1.0
 70
     8
 71
     3
 72
   141
 73
   137
 74
     0
 42
0.00000001
 43
0.00000001
 40
0.0
 40
0.0
 40
0.0
 40
0.0
 40
0.0686301588386629
 40
0.0837272073781677
 40
0.1077682518628709
 40
0.1114133147977768
 40
0.1162231082412014
 40
0.1189121921524907
 40
0.1236814274964108
 40
0.1441033227744826
 40
0.1521890773825841
 40
0.1623681094826193
 40
0.1712887725347226
 40
0.1731642908067499
 40
0.1956530747615448
 40
0.2037503491371831
 40
0.2123283533994084
 40
0.2232941711123081
 40
0.2272225098648624
 40
0.2333206871674454
 40
0.2383319607926927
 40
0.2419944751192893
 40
0.2491117822243639
 40
0.2585185659311343
 40
0.263150007404353
 40
0.2666322247641172
 40
0.2713884789771258
 40
0.2810754321109266
 40
0.2848448602337526
 40
0.2943779401947969
 40
0.2986364412047728
 40
0.3010994086851835
 40
0.3035784095983106
 40
0.3067818959350246
 40
0.3114356384223649
 40
0.3192878562047329
 40
0.3254851223089901
 40
0.3304104868226401
 40
0.3367765352570165
 40
0.3438868712618853
 40
0.363536085672777
 40
0.3743760146732846
 40
0.3810889568732923
 40
0.3843789320248523
 40
0.3878532952674664
 40
0.3900905104299203
 40
0.395856931657616
 40
0.3996368793552809
 40
0.402641652500722
 40
0.4047609599629231
 40
0.4086036143276927
 40
0.4136161772363431
 40
0.4155290149291391
 40
0.4183701871234656
 40
0.4217530904713899
 40
0.4267419935629345
 40
0.4301073142931602
 40
0.4336396629825039
 40
0.4427215179553266
 40
0.4501758985784379
 40
0.4556953223966686
 40
0.4686370312884568
 40
0.4759495455789432
 40
0.4846487311453185
 40
0.4946821202580658
 40
0.5035371967341596
 40
0.5159024748744094
 40
0.5241685907932193
 40
0.5269853678618537
 40
0.5290832058987539
 40
0.5327450724217765
 40
0.5351904073410557
 40
0.5393926493234424
 40
0.5433829152066637
 40
0.5472445613235024
 40
0.5522970699408
 40
0.559396636986209
 40
0.5658096552728102
 40
0.5748350817155055
 40
0.5829897226119714
 40
0.5925024906074505
 40
0.5961436947708704
 40
0.6026618991900577
 40
0.6100573695015518
 40
0.6184965950379583
 40
0.6283227642803592
 40
0.6381780590141175
 40
0.6422865087865224
 40
0.6513814478127968
 40
0.6576548256959327
 40
0.6646862874532434
 40
0.6727621014238448
 40
0.6784140184928569
 40
0.6838853690130748
 40
0.6915956521458625
 40
0.7025849915903614
 40
0.704948615444929
 40
0.7106927056381207
 40
0.7141517812136104
 40
0.7183823175384096
 40
0.722727345748814
 40
0.7293443879599052
 40
0.7355902021549574
 40
0.7420269518092706
 40
0.7483211774061171
 40
0.7595214248711658
 40
0.770565382152202
 40
0.7999342212571113
 40
0.8052220133976836
 40
0.807609568990859
 40
0.810675467617102
 40
0.8148860119529919
 40
0.820981006193824
 40
0.8267713470807752
 40
0.8308138241565434
 40
0.8350311597412369
 40
0.8383429507156663
 40
0.8451727902067819
 40
0.8506420977610185
 40
0.8590549544744073
 40
0.8717568335419014
 40
0.8811142618720696
 40
0.8965946594772136
 40
0.9094613254326139
 40
0.9119271048450973
 40
0.9150774379994906
 40
0.9191859174901669
 40
0.9231229806499998
 40
0.9307595460920898
 40
0.9404712424623322
 40
0.9511705640514828
 40
0.962469729094339
 40
0.9785150457608567
 40
0.9829222454289637
 40
0.9922279656442694
 40
1.0
 40
1.0
 40
1.0
 40
1.0
 10
4.423547035484165
 20
2.599818897591481
 30
0.0
 10
4.338603289835233
 20
2.226405376254465
 30
0.0
 10
4.428081476367294
 20
1.792802775214892
 30
0.0
 10
4.666673878467946
 20
1.250613743187972
 30
0.0
 10
4.747646061648934
 20
1.084823576745527
 30
0.0
 10
4.754797496441792
 20
0.8461164515994632
 30
0.0
 10
4.834635084346855
 20
0.9215100207904715
 30
0.0
 10
4.879012892561334
 20
0.8596963891778017
 30
0.0
 10
4.994294538063124
 20
0.7736529378553856
 30
0.0
 10
5.041182298177604
 20
0.5796842664290773
 30
0.0
 10
5.179072073094114
 20
0.4312050907146888
 30
0.0
 10
5.335364428770443
 20
0.3601818787598913
 30
0.0
 10
5.429557379888815
 20
0.4680189546552836
 30
0.0
 10
5.60592341667444
 20
0.4128914037286263
 30
0.0
 10
5.632509248614989
 20
0.1840781258324635
 30
0.0
 10
5.823538233952467
 20
0.0882578490013016
 30
0.0
 10
5.977437977871768
 20
0.0591277249092215
 30
0.0
 10
6.083577411686287
 20
0.1541124566478134
 30
0.0
 10
6.19687398805793
 20
0.1460881234144843
 30
0.0
 10
6.278454319202435
 20
0.1289500652654459
 30
0.0
 10
6.350700669577068
 20
0.1774058905807584
 30
0.0
 10
6.433313169170091
 20
0.1563271243192437
 30
0.0
 10
6.56258076878387
 20
0.1988823375201955
 30
0.0
 10
6.516373133722791
 20
0.3470651920798746
 30
0.0
 10
6.613314328247917
 20
0.4007029786679377
 30
0.0
 10
6.60555650963965
 20
0.4741088770947758
 30
0.0
 10
6.595368303024824
 20
0.5752695990622259
 30
0.0
 10
6.457023595076143
 20
0.5945098035655342
 30
0.0
 10
6.458771346795422
 20
0.7348492979082049
 30
0.0
 10
6.54698486896354
 20
0.7841522390129814
 30
0.0
 10
6.494011191939208
 20
0.926162345503861
 30
0.0
 10
6.563863242595357
 20
0.8844275057792329
 30
0.0
 10
6.574922249600631
 20
0.9417038583515287
 30
0.0
 10
6.633077814739391
 20
0.9637178014635036
 30
0.0
 10
6.615857135381198
 20
1.062215005226459
 30
0.0
 10
6.606759947497923
 20
1.158850778372446
 30
0.0
 10
6.522257170711377
 20
1.231639601422263
 30
0.0
 10
6.519661204745942
 20
1.328695786600659
 30
0.0
 10
6.505639637523847
 20
1.425220724716705
 30
0.0
 10
6.536633203049214
 20
1.600750613287785
 30
0.0
 10
6.600826880722185
 20
1.794937973489616
 30
0.0
 10
6.745279802020759
 20
1.942548026200875
 30
0.0
 10
6.77363301626178
 20
2.047045322858345
 30
0.0
 10
6.837476016249876
 20
2.105801006040783
 30
0.0
 10
6.788352422828167
 20
2.153348086252125
 30
0.0
 10
6.834281181899696
 20
2.207697357617094
 30
0.0
 10
6.898379612993053
 20
2.22033096510117
 30
0.0
 10
6.916758184287354
 20
2.308392111429457
 30
0.0
 10
6.847272356431761
 20
2.32704912105573
 30
0.0
 10
6.887069885640128
 20
2.375352001771816
 30
0.0
 10
6.933819791470499
 20
2.401004587819535
 30
0.0
 10
6.948277179624391
 20
2.47514487750186
 30
0.0
 10
7.005236449111805
 20
2.477134093931054
 30
0.0
 10
7.044413684751772
 20
2.469736584557117
 30
0.0
 10
7.119922272013373
 20
2.48067232232393
 30
0.0
 10
7.104349765332496
 20
2.392895117569367
 30
0.0
 10
7.112801889622122
 20
2.334955056790418
 30
0.0
 10
7.118293492462191
 20
2.248511167352632
 30
0.0
 10
7.129685544333679
 20
2.142293876318807
 30
0.0
 10
7.169872377848386
 20
2.031390724840601
 30
0.0
 10
7.208762141710194
 20
1.89848831098375
 30
0.0
 10
7.28987053853097
 20
1.784862020557644
 30
0.0
 10
7.34023085093891
 20
1.637622945722059
 30
0.0
 10
7.429549286460531
 20
1.529103000191916
 30
0.0
 10
7.491268711629155
 20
1.395069702074953
 30
0.0
 10
7.586551354075277
 20
1.258200101504185
 30
0.0
 10
7.676924154700697
 20
1.130007167032831
 30
0.0
 10
7.774153243902385
 20
1.046570741262651
 30
0.0
 10
7.800694323595216
 20
0.979879993984477
 30
0.0
 10
7.847096648765074
 20
0.955819027080067
 30
0.0
 10
7.816512404061997
 20
0.8932361250089353
 30
0.0
 10
7.891877012490589
 20
0.8815112418299957
 30
0.0
 10
7.919699104290979
 20
0.9722933235332998
 30
0.0
 10
7.962530821611158
 20
0.8826253824467154
 30
0.0
 10
8.018158626816387
 20
0.852047774774858
 30
0.0
 10
8.057952789220343
 20
0.7697852040291179
 30
0.0
 10
8.134903917727732
 20
0.7088033547142512
 30
0.0
 10
8.205084260413175
 20
0.6039459674382652
 30
0.0
 10
8.34078333025001
 20
0.588260175788208
 30
0.0
 10
8.472992089860494
 20
0.5559548728774049
 30
0.0
 10
8.606864158472122
 20
0.5948738333459938
 30
0.0
 10
8.67117050466185
 20
0.5037672860663986
 30
0.0
 10
8.737085927213474
 20
0.4396403590072827
 30
0.0
 10
8.839141153726205
 20
0.3736843262774575
 30
0.0
 10
8.975539561720288
 20
0.3459388523477894
 30
0.0
 10
9.124991974387788
 20
0.3502226683863882
 30
0.0
 10
9.252387477218008
 20
0.3380313003317693
 30
0.0
 10
9.373539053133152
 20
0.3641935324855499
 30
0.0
 10
9.47467127346363
 20
0.3616685061535548
 30
0.0
 10
9.602082840743831
 20
0.3931203764872743
 30
0.0
 10
9.639810863899132
 20
0.5080553845441459
 30
0.0
 10
9.673687700623246
 20
0.627549953884855
 30
0.0
 10
9.566365405969327
 20
0.7019127879665906
 30
0.0
 10
9.634628813657926
 20
0.8016606176465372
 30
0.0
 10
9.634796843103665
 20
0.9316557854436567
 30
0.0
 10
9.56710598195658
 20
1.038122084693847
 30
0.0
 10
9.597894450100062
 20
1.138521023472164
 30
0.0
 10
9.65895360243454
 20
1.176236345870263
 30
0.0
 10
9.741044024756704
 20
1.153740955556226
 30
0.0
 10
9.759032789132048
 20
1.24474543985763
 30
0.0
 10
9.685751925062279
 20
1.29447764293062
 30
0.0
 10
9.691463081302775
 20
1.39625830078207
 30
0.0
 10
9.638913919147775
 20
1.487609885582135
 30
0.0
 10
9.651221210430188
 20
1.592425034637719
 30
0.0
 10
9.608039065376436
 20
1.713856560437867
 30
0.0
 10
9.568896948594121
 20
1.859336141718198
 30
0.0
 10
9.54715088952424
 20
2.143855649125501
 30
0.0
 10
9.521624710712212
 20
2.319400926665813
 30
0.0
 10
9.60059492001189
 20
2.602450743132021
 30
0.0
 10
9.653167918807583
 20
2.552734362110441
 30
0.0
 10
9.705501833656829
 20
2.562598391630584
 30
0.0
 10
9.778474377284926
 20
2.570474584667972
 30
0.0
 10
9.851260167125613
 20
2.520505760308163
 30
0.0
 10
9.960618712220223
 20
2.552130755605676
 30
0.0
 10
9.972351839138309
 20
2.461609905139712
 30
0.0
 10
10.00007471613346
 20
2.409746582994074
 30
0.0
 10
10.02498761785593
 20
2.336450280593034
 30
0.0
 10
10.07509478284684
 20
2.267598416818336
 30
0.0
 10
10.08560043030829
 20
2.154148242290628
 30
0.0
 10
10.17550539212872
 20
2.039355472598803
 30
0.0
 10
10.25423158876618
 20
1.898657339683014
 30
0.0
 10
10.34217188487577
 20
1.718780725014081
 30
0.0
 10
10.47799539569982
 20
1.563494054606483
 30
0.0
 10
10.5350508416063
 20
1.415336522305627
 30
0.0
 10
10.6354209049371
 20
1.352072665967808
 30
0.0
 10
10.67212599434081
 20
1.428849168200451
 30
0.0
 10
10.7089205679089
 20
1.340799697201561
 30
0.0
 10
10.76180716485686
 20
1.290050127331335
 30
0.0
 10
10.8369310888291
 20
1.197476200156153
 30
0.0
 10
10.90123229378016
 20
1.063328163671251
 30
0.0
 10
11.00582435188429
 20
0.932197845189878
 30
0.0
 10
11.17409416650867
 20
0.7921795064249307
 30
0.0
 10
11.42399915397666
 20
0.9672143172670667
 30
0.0
 10
11.44166625214299
 20
0.7740847860816295
 30
0.0
 10
11.57633867460343
 20
0.7530136094505256
 30
0.0
 10
11.65542956790108
 20
0.7081554853641275
 30
0.0
 10
11.69633829405389
 20
0.7399982923444167
 30
0.0
  0
SPLINE
  5
CA
330
1F
100
AcDbEntity
  8
0
  6
Continuous
 62
     7
370
    25
100
AcDbSpline
210
0.0
220
0.0
230
1.0
 70
     8
 71
     3
 72
    13
 73
     9
 74
     0
 42
0.00000001
 43
0.00000001
 40
0.0
 40
0.0
 40
0.0
 40
0.0
 40
0.194875431401318
 40
0.3265862526417753
 40
0.3957435546153029
 40
0.5628304087706093
 40
0.72713464075761
 40
1.0
 40
1.0
 40
1.0
 40
1.0
 10
3.557062787276908
 20
2.764603161109585
 30
0.0
 10
3.607892694866742
 20
2.725209056832141
 30
0.0
 10
3.713219266503544
 20
2.746143338248839
 30
0.0
 10
3.8318115272658
 20
2.760922960323656
 30
0.0
 10
3.93776472515286
 20
2.809103713575608
 30
0.0
 10
4.061742921387782
 20
2.756754823403371
 30
0.0
 10
4.231287153612683
 20
2.694752666658931
 30
0.0
 10
4.333612765294318
 20
2.586414245878685
 30
0.0
 10
4.423547035484165
 20
2.599818897591481
 30
0.0
  0
MTEXT
  5
CC
330
1F
100
AcDbEntity
  8
0
  6
Continuous
 62
     7
100
AcDbMText
 10
0.0
 20
0.5307595909
 30
0.0
 40
0.1903
 41
0.0
 71
     1
 72
     1
  1
SOLIDWORKS Educational Product.
  7
SLDTEXTSTYLE0
 73
     1
 44
1.0
  0
MTEXT
  5
CD
330
1F
100
AcDbEntity
  8
0
  6
Continuous
 62
     7
100
AcDbMText
 10
0.0
 20
0.2453095909
 30
0.0
 40
0.1903
 41
0.0
 71
     1
 72
     1
  1
For Instructional Use Only.
  7
SLDTEXTSTYLE0
 73
     1
 44
1.0
  0
ENDSEC
  0
SECTION
  2
OBJECTS
  0
DICTIONARY
  5
C
330
0
100
AcDbDictionary
281
     1
  3
ACAD_GROUP
350
D
  3
ACAD_LAYOUT
350
1A
  3
ACAD_MLINESTYLE
350
17
  3
ACAD_PLOTSETTINGS
350
19
  3
ACAD_PLOTSTYLENAME
350
E
  3
ACAD_SCALELIST
350
47
  3
DWGPROPS
350
CE
  0
DICTIONARY
  5
D
102
{ACAD_REACTORS
330
C
102
}
330
C
100
AcDbDictionary
281
     1
  0
DICTIONARY
  5
1A
102
{ACAD_REACTORS
330
C
102
}
330
C
100
AcDbDictionary
281
     1
  3
Layout1
350
1E
  3
Layout2
350
26
  3
Model
350
22
  0
DICTIONARY
  5
17
102
{ACAD_REACTORS
330
C
102
}
330
C
100
AcDbDictionary
281
     1
  3
Standard
350
18
  0
DICTIONARY
  5
19
102
{ACAD_REACTORS
330
C
102
}
330
C
100
AcDbDictionary
281
     1
  0
ACDBDICTIONARYWDFLT
  5
E
102
{ACAD_REACTORS
330
C
102
}
330
C
100
AcDbDictionary
281
     1
  3
Normal
350
F
100
AcDbDictionaryWithDefault
340
F
  0
DICTIONARY
  5
47
102
{ACAD_REACTORS
330
C
102
}
330
C
100
AcDbDictionary
281
     1
  3
A0
350
48
  3
A1
350
49
  3
A2
350
4A
  3
A3
350
4B
  3
A4
350
4C
  3
A5
350
4D
  3
A6
350
4E
  3
A7
350
4F
  3
A8
350
50
  3
A9
350
51
  3
B1
350
52
  3
B2
350
53
  3
B3
350
54
  3
B4
350
55
  3
B5
350
56
  3
B6
350
57
  3
B7
350
58
  0
XRECORD
  5
CE
102
{ACAD_REACTORS
330
C
102
}
330
C
100
AcDbXrecord
280
     1
  1
DWGPROPS COOKIE
  2

  3

  4

  6

  7

  8
bethany
  9

300
=
301
=
302
=
303
=
304
=
305
=
306
=
307
=
308
=
309
=
 40
0.0
 41
2460800.124173391
 42
2460800.124173762
  1

 90
        0
  0
LAYOUT
  5
1E
102
{ACAD_REACTORS
330
1A
102
}
330
1A
100
AcDbPlotSettings
  1

  2
none_device
  4

  6

 40
0.0
 41
0.0
 42
0.0
 43
0.0
 44
0.0
 45
0.0
 46
0.0
 47
0.0
 48
0.0
 49
0.0
140
0.0
141
0.0
142
1.0
143
1.0
 70
   688
 72
     0
 73
     0
 74
     5
  7

 75
    16
147
1.0
148
0.0
149
0.0
100
AcDbLayout
  1
Layout1
 70
     1
 71
     1
 10
0.0
 20
0.0
 11
12.0
 21
9.0
 12
0.0
 22
0.0
 32
0.0
 14
1.0000000000E+20
 24
1.0000000000E+20
 34
1.0000000000E+20
 15
-1.0000000000E+20
 25
-1.0000000000E+20
 35
-1.0000000000E+20
146
0.0
 13
0.0
 23
0.0
 33
0.0
 16
1.0
 26
0.0
 36
0.0
 17
0.0
 27
1.0
 37
0.0
 76
     0
330
1B
  0
LAYOUT
  5
26
102
{ACAD_REACTORS
330
1A
102
}
330
1A
100
AcDbPlotSettings
  1

  2
none_device
  4

  6

 40
0.0
 41
0.0
 42
0.0
 43
0.0
 44
0.0
 45
0.0
 46
0.0
 47
0.0
 48
0.0
 49
0.0
140
0.0
141
0.0
142
1.0
143
1.0
 70
   688
 72
     0
 73
     0
 74
     5
  7

 75
    16
147
1.0
148
0.0
149
0.0
100
AcDbLayout
  1
Layout2
 70
     1
 71
     2
 10
0.0
 20
0.0
 11
0.0
 21
0.0
 12
0.0
 22
0.0
 32
0.0
 14
0.0
 24
0.0
 34
0.0
 15
0.0
 25
0.0
 35
0.0
146
0.0
 13
0.0
 23
0.0
 33
0.0
 16
1.0
 26
0.0
 36
0.0
 17
0.0
 27
1.0
 37
0.0
 76
     0
330
23
  0
LAYOUT
  5
22
102
{ACAD_REACTORS
330
1A
102
}
330
1A
100
AcDbPlotSettings
  1

  2
none_device
  4
Letter_(8.50_x_11.00_Inches)
  6

 40
6.35
 41
6.35
 42
6.35000508
 43
6.35000508
 44
215.9
 45
279.4
 46
0.0
 47
0.0
 48
0.0
 49
0.0
140
0.0
141
0.0
142
1.0
143
1.0
 70
  1712
 72
     0
 73
     0
 74
     0
  7

 75
     0
147
1.0
148
0.0
149
0.0
100
AcDbLayout
  1
Model
 70
     1
 71
     0
 10
0.0
 20
0.0
 11
18.0
 21
11.0
 12
0.0
 22
0.0
 32
0.0
 14
0.0
 24
0.0
 34
0.0
 15
18.0
 25
11.0
 35
0.0
146
0.0
 13
0.0
 23
0.0
 33
0.0
 16
1.0
 26
0.0
 36
0.0
 17
0.0
 27
1.0
 37
0.0
 76
     0
330
1F
331
29
  0
MLINESTYLE
  5
18
102
{ACAD_REACTORS
330
17
102
}
330
17
100
AcDbMlineStyle
  2
Standard
 70
     0
  3

 62
   256
 51
90.0
 52
90.0
 71
     2
 49
0.5
 62
   256
  6
BYLAYER
 49
-0.5
 62
   256
  6
BYLAYER
  0
ACDBPLACEHOLDER
  5
F
102
{ACAD_REACTORS
330
E
102
}
330
E
  0
SCALE
  5
48
102
{ACAD_REACTORS
330
47
102
}
330
47
100
AcDbScale
 70
     0
300
1:1
140
1.0
141
1.0
290
     1
  0
SCALE
  5
49
102
{ACAD_REACTORS
330
47
102
}
330
47
100
AcDbScale
 70
     0
300
1/128" = 1'-0"
140
0.0078125
141
12.0
290
     0
  0
SCALE
  5
4A
102
{ACAD_REACTORS
330
47
102
}
330
47
100
AcDbScale
 70
     0
300
1/64" = 1'-0"
140
0.015625
141
12.0
290
     0
  0
SCALE
  5
4B
102
{ACAD_REACTORS
330
47
102
}
330
47
100
AcDbScale
 70
     0
300
1/32" = 1'-0"
140
0.03125
141
12.0
290
     0
  0
SCALE
  5
4C
102
{ACAD_REACTORS
330
47
102
}
330
47
100
AcDbScale
 70
     0
300
1/16" = 1'-0"
140
0.0625
141
12.0
290
     0
  0
SCALE
  5
4D
102
{ACAD_REACTORS
330
47
102
}
330
47
100
AcDbScale
 70
     0
300
3/32" = 1'-0"
140
0.09375
141
12.0
290
     0
  0
SCALE
  5
4E
102
{ACAD_REACTORS
330
47
102
}
330
47
100
AcDbScale
 70
     0
300
1/8" = 1'-0"
140
0.125
141
12.0
290
     0
  0
SCALE
  5
4F
102
{ACAD_REACTORS
330
47
102
}
330
47
100
AcDbScale
 70
     0
300
3/16" = 1'-0"
140
0.1875
141
12.0
290
     0
  0
SCALE
  5
50
102
{ACAD_REACTORS
330
47
102
}
330
47
100
AcDbScale
 70
     0
300
1/4" = 1'-0"
140
0.25
141
12.0
290
     0
  0
SCALE
  5
51
102
{ACAD_REACTORS
330
47
102
}
330
47
100
AcDbScale
 70
     0
300
3/8" = 1'-0"
140
0.375
141
12.0
290
     0
  0
SCALE
  5
52
102
{ACAD_REACTORS
330
47
102
}
330
47
100
AcDbScale
 70
     0
300
1/2" = 1'-0"
140
0.5
141
12.0
290
     0
  0
SCALE
  5
53
102
{ACAD_REACTORS
330
47
102
}
330
47
100
AcDbScale
 70
     0
300
3/4" = 1'-0"
140
0.75
141
12.0
290
     0
  0
SCALE
  5
54
102
{ACAD_REACTORS
330
47
102
}
330
47
100
AcDbScale
 70
     0
300
1" = 1'-0"
140
1.0
141
12.0
290
     0
  0
SCALE
  5
55
102
{ACAD_REACTORS
330
47
102
}
330
47
100
AcDbScale
 70
     0
300
1-1/2" = 1'-0"
140
1.5
141
12.0
290
     0
  0
SCALE
  5
56
102
{ACAD_REACTORS
330
47
102
}
330
47
100
AcDbScale
 70
     0
300
3" = 1'-0"
140
3.0
141
12.0
290
     0
  0
SCALE
  5
57
102
{ACAD_REACTORS
330
47
102
}
330
47
100
AcDbScale
 70
     0
300
6" = 1'-0"
140
6.0
141
12.0
290
     0
  0
SCALE
  5
58
102
{ACAD_REACTORS
330
47
102
}
330
47
100
AcDbScale
 70
     0
300
1'-0" = 1'-0"
140
12.0
141
12.0
290
     0
  0
ENDSEC
  0
EOF
